<svg id="visual" viewBox="0 0 900 450" width="900" height="450" xmlns="http://www.w3.org/2000/svg" xmlns:xlink="http://www.w3.org/1999/xlink" version="1.1"><g transform="translate(440.69783508637687 217.80325696424)"><path d="M121.5 -132.9C167.7 -106.1 222.3 -77.4 241.3 -33.2C260.3 11.1 243.6 71.1 207.7 107.4C171.8 143.7 116.7 156.4 64.3 174.5C12 192.6 -37.6 216.1 -87.7 210.9C-137.8 205.7 -188.4 171.9 -212.5 125.1C-236.5 78.4 -234 18.8 -220.4 -35.5C-206.8 -89.8 -182.1 -138.7 -143.6 -166.9C-105 -195.1 -52.5 -202.6 -7.4 -193.7C37.7 -184.9 75.3 -159.8 121.5 -132.9" fill="#f9e9d6"></path></g></svg>