<svg id="visual" viewBox="0 0 900 600" width="900" height="600" xmlns="http://www.w3.org/2000/svg" xmlns:xlink="http://www.w3.org/1999/xlink" version="1.1"><path d="M0 269L15 268.3C30 267.7 60 266.3 90 263.3C120 260.3 150 255.7 180 252C210 248.3 240 245.7 270 246C300 246.3 330 249.7 360 254C390 258.3 420 263.7 450 270.2C480 276.7 510 284.3 540 284C570 283.7 600 275.3 630 269.3C660 263.3 690 259.7 720 263.7C750 267.7 780 279.3 810 284.8C840 290.3 870 289.7 885 289.3L900 289L900 0L885 0C870 0 840 0 810 0C780 0 750 0 720 0C690 0 660 0 630 0C600 0 570 0 540 0C510 0 480 0 450 0C420 0 390 0 360 0C330 0 300 0 270 0C240 0 210 0 180 0C150 0 120 0 90 0C60 0 30 0 15 0L0 0Z" fill="#873649"></path><path d="M0 182L15 183C30 184 60 186 90 184.8C120 183.7 150 179.3 180 178.2C210 177 240 179 270 178.7C300 178.3 330 175.7 360 179.5C390 183.3 420 193.7 450 193C480 192.3 510 180.7 540 180.2C570 179.7 600 190.3 630 195.2C660 200 690 199 720 195.8C750 192.7 780 187.3 810 186C840 184.7 870 187.3 885 188.7L900 190L900 0L885 0C870 0 840 0 810 0C780 0 750 0 720 0C690 0 660 0 630 0C600 0 570 0 540 0C510 0 480 0 450 0C420 0 390 0 360 0C330 0 300 0 270 0C240 0 210 0 180 0C150 0 120 0 90 0C60 0 30 0 15 0L0 0Z" fill="#a99802"></path><path d="M0 116L15 112.5C30 109 60 102 90 98C120 94 150 93 180 96.7C210 100.3 240 108.7 270 113.2C300 117.7 330 118.3 360 117C390 115.7 420 112.3 450 110.3C480 108.3 510 107.7 540 104.5C570 101.3 600 95.7 630 95.2C660 94.7 690 99.3 720 101.3C750 103.3 780 102.7 810 100.8C840 99 870 96 885 94.5L900 93L900 0L885 0C870 0 840 0 810 0C780 0 750 0 720 0C690 0 660 0 630 0C600 0 570 0 540 0C510 0 480 0 450 0C420 0 390 0 360 0C330 0 300 0 270 0C240 0 210 0 180 0C150 0 120 0 90 0C60 0 30 0 15 0L0 0Z" fill="#c0ffee"></path></svg>