<svg id="visual" viewBox="0 0 900 600" width="900" height="600" xmlns="http://www.w3.org/2000/svg" xmlns:xlink="http://www.w3.org/1999/xlink" version="1.1"><path d="M0 317L15 323C30 329 60 341 90 340.3C120 339.7 150 326.3 180 321.3C210 316.3 240 319.7 270 326.7C300 333.7 330 344.3 360 346C390 347.7 420 340.3 450 332.7C480 325 510 317 540 313.7C570 310.3 600 311.7 630 317.2C660 322.7 690 332.3 720 332.3C750 332.3 780 322.7 810 316C840 309.3 870 305.7 885 303.8L900 302L900 601L885 601C870 601 840 601 810 601C780 601 750 601 720 601C690 601 660 601 630 601C600 601 570 601 540 601C510 601 480 601 450 601C420 601 390 601 360 601C330 601 300 601 270 601C240 601 210 601 180 601C150 601 120 601 90 601C60 601 30 601 15 601L0 601Z" fill="#873649"></path><path d="M0 408L15 404.3C30 400.7 60 393.3 90 397.5C120 401.7 150 417.3 180 417.3C210 417.3 240 401.7 270 399.8C300 398 330 410 360 410.3C390 410.7 420 399.3 450 401.3C480 403.3 510 418.7 540 419.5C570 420.3 600 406.7 630 406.5C660 406.3 690 419.7 720 422.7C750 425.7 780 418.3 810 413.2C840 408 870 405 885 403.5L900 402L900 601L885 601C870 601 840 601 810 601C780 601 750 601 720 601C690 601 660 601 630 601C600 601 570 601 540 601C510 601 480 601 450 601C420 601 390 601 360 601C330 601 300 601 270 601C240 601 210 601 180 601C150 601 120 601 90 601C60 601 30 601 15 601L0 601Z" fill="#a99802"></path><path d="M0 505L15 501.3C30 497.7 60 490.3 90 489.3C120 488.3 150 493.7 180 493.7C210 493.7 240 488.3 270 491C300 493.7 330 504.3 360 507.2C390 510 420 505 450 500.2C480 495.3 510 490.7 540 488.2C570 485.7 600 485.3 630 485.7C660 486 690 487 720 488.7C750 490.3 780 492.7 810 494.3C840 496 870 497 885 497.5L900 498L900 601L885 601C870 601 840 601 810 601C780 601 750 601 720 601C690 601 660 601 630 601C600 601 570 601 540 601C510 601 480 601 450 601C420 601 390 601 360 601C330 601 300 601 270 601C240 601 210 601 180 601C150 601 120 601 90 601C60 601 30 601 15 601L0 601Z" fill="#c0ffee"></path></svg>