<svg xmlns="http://www.w3.org/2000/svg" version="1.1" xmlns:xlink="http://www.w3.org/1999/xlink" xmlns:svgjs="http://svgjs.dev/svgjs" viewBox="0 0 800 800" opacity="0.4"><defs><linearGradient x1="50%" y1="0%" x2="50%" y2="100%" id="vvvortex-grad"><stop stop-color="hsl(1.4, 60%, 67%)" stop-opacity="1" offset="0%"></stop><stop stop-color="#c0ffee" stop-opacity="1" offset="100%"></stop></linearGradient></defs><g stroke="url(#vvvortex-grad)" fill="none" stroke-linecap="round"><circle r="907.5" cx="400" cy="400" stroke-width="22" stroke-dasharray="45 42" stroke-dashoffset="25" transform="rotate(25, 400, 400)"></circle><circle r="891" cx="400" cy="400" stroke-width="22" stroke-dasharray="76 33" stroke-dashoffset="25" transform="rotate(74, 400, 400)"></circle><circle r="874.5" cx="400" cy="400" stroke-width="22" stroke-dasharray="31 42" stroke-dashoffset="25" transform="rotate(232, 400, 400)"></circle><circle r="858" cx="400" cy="400" stroke-width="22" stroke-dasharray="68 70" stroke-dashoffset="25" transform="rotate(329, 400, 400)"></circle><circle r="841.5" cx="400" cy="400" stroke-width="22" stroke-dasharray="74 61" stroke-dashoffset="25" transform="rotate(204, 400, 400)"></circle><circle r="825" cx="400" cy="400" stroke-width="21" stroke-dasharray="56 72" stroke-dashoffset="25" transform="rotate(10, 400, 400)"></circle><circle r="808.5" cx="400" cy="400" stroke-width="21" stroke-dasharray="54 34" stroke-dashoffset="25" transform="rotate(112, 400, 400)"></circle><circle r="792" cx="400" cy="400" stroke-width="21" stroke-dasharray="67 37" stroke-dashoffset="25" transform="rotate(164, 400, 400)"></circle><circle r="775.5" cx="400" cy="400" stroke-width="21" stroke-dasharray="44 47" stroke-dashoffset="25" transform="rotate(285, 400, 400)"></circle><circle r="759" cx="400" cy="400" stroke-width="21" stroke-dasharray="47 46" stroke-dashoffset="25" transform="rotate(293, 400, 400)"></circle><circle r="742.5" cx="400" cy="400" stroke-width="21" stroke-dasharray="59 39" stroke-dashoffset="25" transform="rotate(201, 400, 400)"></circle><circle r="726" cx="400" cy="400" stroke-width="21" stroke-dasharray="62 49" stroke-dashoffset="25" transform="rotate(166, 400, 400)"></circle><circle r="709.5" cx="400" cy="400" stroke-width="21" stroke-dasharray="50 58" stroke-dashoffset="25" transform="rotate(3, 400, 400)"></circle><circle r="693" cx="400" cy="400" stroke-width="21" stroke-dasharray="53 32" stroke-dashoffset="25" transform="rotate(355, 400, 400)"></circle><circle r="676.5" cx="400" cy="400" stroke-width="20" stroke-dasharray="75 33" stroke-dashoffset="25" transform="rotate(177, 400, 400)"></circle><circle r="660" cx="400" cy="400" stroke-width="20" stroke-dasharray="62 68" stroke-dashoffset="25" transform="rotate(322, 400, 400)"></circle><circle r="643.5" cx="400" cy="400" stroke-width="20" stroke-dasharray="69 50" stroke-dashoffset="25" transform="rotate(189, 400, 400)"></circle><circle r="627" cx="400" cy="400" stroke-width="20" stroke-dasharray="57 49" stroke-dashoffset="25" transform="rotate(186, 400, 400)"></circle><circle r="610.5" cx="400" cy="400" stroke-width="20" stroke-dasharray="64 44" stroke-dashoffset="25" transform="rotate(42, 400, 400)"></circle><circle r="594" cx="400" cy="400" stroke-width="20" stroke-dasharray="41 58" stroke-dashoffset="25" transform="rotate(50, 400, 400)"></circle><circle r="577.5" cx="400" cy="400" stroke-width="20" stroke-dasharray="46 33" stroke-dashoffset="25" transform="rotate(335, 400, 400)"></circle><circle r="561" cx="400" cy="400" stroke-width="20" stroke-dasharray="68 73" stroke-dashoffset="25" transform="rotate(260, 400, 400)"></circle><circle r="544.5" cx="400" cy="400" stroke-width="20" stroke-dasharray="70 58" stroke-dashoffset="25" transform="rotate(44, 400, 400)"></circle><circle r="528" cx="400" cy="400" stroke-width="19" stroke-dasharray="50 73" stroke-dashoffset="25" transform="rotate(208, 400, 400)"></circle><circle r="511.5" cx="400" cy="400" stroke-width="19" stroke-dasharray="32 31" stroke-dashoffset="25" transform="rotate(245, 400, 400)"></circle><circle r="495" cx="400" cy="400" stroke-width="19" stroke-dasharray="51 52" stroke-dashoffset="25" transform="rotate(93, 400, 400)"></circle><circle r="478.5" cx="400" cy="400" stroke-width="19" stroke-dasharray="31 31" stroke-dashoffset="25" transform="rotate(58, 400, 400)"></circle><circle r="462" cx="400" cy="400" stroke-width="19" stroke-dasharray="66 48" stroke-dashoffset="25" transform="rotate(275, 400, 400)"></circle><circle r="445.5" cx="400" cy="400" stroke-width="19" stroke-dasharray="34 39" stroke-dashoffset="25" transform="rotate(348, 400, 400)"></circle><circle r="429" cx="400" cy="400" stroke-width="19" stroke-dasharray="34 65" stroke-dashoffset="25" transform="rotate(238, 400, 400)"></circle><circle r="412.5" cx="400" cy="400" stroke-width="19" stroke-dasharray="51 33" stroke-dashoffset="25" transform="rotate(90, 400, 400)"></circle><circle r="396" cx="400" cy="400" stroke-width="19" stroke-dasharray="41 33" stroke-dashoffset="25" transform="rotate(146, 400, 400)"></circle><circle r="379.5" cx="400" cy="400" stroke-width="18" stroke-dasharray="48 44" stroke-dashoffset="25" transform="rotate(58, 400, 400)"></circle><circle r="363" cx="400" cy="400" stroke-width="18" stroke-dasharray="65 38" stroke-dashoffset="25" transform="rotate(104, 400, 400)"></circle><circle r="346.5" cx="400" cy="400" stroke-width="18" stroke-dasharray="48 76" stroke-dashoffset="25" transform="rotate(296, 400, 400)"></circle><circle r="330" cx="400" cy="400" stroke-width="18" stroke-dasharray="64 40" stroke-dashoffset="25" transform="rotate(269, 400, 400)"></circle><circle r="313.5" cx="400" cy="400" stroke-width="18" stroke-dasharray="44 54" stroke-dashoffset="25" transform="rotate(4, 400, 400)"></circle><circle r="297" cx="400" cy="400" stroke-width="18" stroke-dasharray="64 32" stroke-dashoffset="25" transform="rotate(333, 400, 400)"></circle><circle r="280.5" cx="400" cy="400" stroke-width="18" stroke-dasharray="53 38" stroke-dashoffset="25" transform="rotate(344, 400, 400)"></circle><circle r="264" cx="400" cy="400" stroke-width="18" stroke-dasharray="32 38" stroke-dashoffset="25" transform="rotate(10, 400, 400)"></circle><circle r="247.5" cx="400" cy="400" stroke-width="18" stroke-dasharray="58 58" stroke-dashoffset="25" transform="rotate(262, 400, 400)"></circle><circle r="231" cx="400" cy="400" stroke-width="17" stroke-dasharray="51 63" stroke-dashoffset="25" transform="rotate(65, 400, 400)"></circle><circle r="214.5" cx="400" cy="400" stroke-width="17" stroke-dasharray="34 76" stroke-dashoffset="25" transform="rotate(20, 400, 400)"></circle><circle r="198" cx="400" cy="400" stroke-width="17" stroke-dasharray="35 39" stroke-dashoffset="25" transform="rotate(232, 400, 400)"></circle><circle r="181.5" cx="400" cy="400" stroke-width="17" stroke-dasharray="52 49" stroke-dashoffset="25" transform="rotate(144, 400, 400)"></circle><circle r="165" cx="400" cy="400" stroke-width="17" stroke-dasharray="64 77" stroke-dashoffset="25" transform="rotate(52, 400, 400)"></circle><circle r="148.5" cx="400" cy="400" stroke-width="17" stroke-dasharray="39 39" stroke-dashoffset="25" transform="rotate(252, 400, 400)"></circle><circle r="132" cx="400" cy="400" stroke-width="17" stroke-dasharray="57 70" stroke-dashoffset="25" transform="rotate(327, 400, 400)"></circle><circle r="115.5" cx="400" cy="400" stroke-width="17" stroke-dasharray="74 68" stroke-dashoffset="25" transform="rotate(47, 400, 400)"></circle><circle r="99" cx="400" cy="400" stroke-width="17" stroke-dasharray="60 56" stroke-dashoffset="25" transform="rotate(177, 400, 400)"></circle><circle r="82.5" cx="400" cy="400" stroke-width="16" stroke-dasharray="70 34" stroke-dashoffset="25" transform="rotate(286, 400, 400)"></circle><circle r="66" cx="400" cy="400" stroke-width="16" stroke-dasharray="46 54" stroke-dashoffset="25" transform="rotate(112, 400, 400)"></circle><circle r="49.5" cx="400" cy="400" stroke-width="16" stroke-dasharray="56 57" stroke-dashoffset="25" transform="rotate(41, 400, 400)"></circle><circle r="33" cx="400" cy="400" stroke-width="16" stroke-dasharray="41 60" stroke-dashoffset="25" transform="rotate(268, 400, 400)"></circle><circle r="16.5" cx="400" cy="400" stroke-width="16" stroke-dasharray="60 63" stroke-dashoffset="25" transform="rotate(338, 400, 400)"></circle></g></svg>