<svg id="visual" viewBox="0 0 900 600" width="900" height="600" xmlns="http://www.w3.org/2000/svg" xmlns:xlink="http://www.w3.org/1999/xlink" version="1.1"><rect x="0" y="0" width="900" height="600" fill="#ffffff"></rect><g fill="none" stroke="#000000" stroke-width="27"><path d="M3.8 2.2L3.8 9.7L-3.8 9.7L-3.8 2.2L-10.3 -1.6L-6.5 -8.1L0 -4.4L6.5 -8.1L10.3 -1.6Z" transform="translate(8 448)"></path><path d="M0.3 0.2L0.3 0.7L-0.3 0.7L-0.3 0.2L-0.7 -0.1L-0.5 -0.6L0 -0.3L0.5 -0.6L0.7 -0.1Z" transform="translate(392 110)"></path><path d="M2.2 1.2L2.2 5.6L-2.2 5.6L-2.2 1.2L-5.9 -0.9L-3.7 -4.7L0 -2.5L3.7 -4.7L5.9 -0.9Z" transform="translate(884 243)"></path><path d="M3.2 1.9L3.2 8.3L-3.2 8.3L-3.2 1.9L-8.8 -1.4L-5.6 -7L0 -3.7L5.6 -7L8.8 -1.4Z" transform="translate(421 539)"></path><path d="M0.5 0.3L0.5 1.4L-0.5 1.4L-0.5 0.3L-1.5 -0.2L-0.9 -1.2L0 -0.6L0.9 -1.2L1.5 -0.2Z" transform="translate(436 498)"></path><path d="M1.6 0.9L1.6 4.2L-1.6 4.2L-1.6 0.9L-4.4 -0.7L-2.8 -3.5L0 -1.9L2.8 -3.5L4.4 -0.7Z" transform="translate(714 35)"></path><path d="M3.2 1.9L3.2 8.3L-3.2 8.3L-3.2 1.9L-8.8 -1.4L-5.6 -7L0 -3.7L5.6 -7L8.8 -1.4Z" transform="translate(565 24)"></path><path d="M0.8 0.5L0.8 2.1L-0.8 2.1L-0.8 0.5L-2.2 -0.3L-1.4 -1.7L0 -0.9L1.4 -1.7L2.2 -0.3Z" transform="translate(204 557)"></path><path d="M0.8 0.5L0.8 2.1L-0.8 2.1L-0.8 0.5L-2.2 -0.3L-1.4 -1.7L0 -0.9L1.4 -1.7L2.2 -0.3Z" transform="translate(757 564)"></path><path d="M3.2 1.9L3.2 8.3L-3.2 8.3L-3.2 1.9L-8.8 -1.4L-5.6 -7L0 -3.7L5.6 -7L8.8 -1.4Z" transform="translate(754 110)"></path><path d="M2.7 1.6L2.7 7L-2.7 7L-2.7 1.6L-7.4 -1.1L-4.7 -5.8L0 -3.1L4.7 -5.8L7.4 -1.1Z" transform="translate(246 463)"></path><path d="M2.7 1.6L2.7 7L-2.7 7L-2.7 1.6L-7.4 -1.1L-4.7 -5.8L0 -3.1L4.7 -5.8L7.4 -1.1Z" transform="translate(843 588)"></path><path d="M1.3 0.8L1.3 3.5L-1.3 3.5L-1.3 0.8L-3.7 -0.6L-2.3 -2.9L0 -1.6L2.3 -2.9L3.7 -0.6Z" transform="translate(301 588)"></path><path d="M2.4 1.4L2.4 6.3L-2.4 6.3L-2.4 1.4L-6.6 -1L-4.2 -5.2L0 -2.8L4.2 -5.2L6.6 -1Z" transform="translate(477 366)"></path><path d="M3 1.7L3 7.7L-3 7.7L-3 1.7L-8.1 -1.3L-5.1 -6.4L0 -3.4L5.1 -6.4L8.1 -1.3Z" transform="translate(175 403)"></path><path d="M2.4 1.4L2.4 6.3L-2.4 6.3L-2.4 1.4L-6.6 -1L-4.2 -5.2L0 -2.8L4.2 -5.2L6.6 -1Z" transform="translate(734 205)"></path><path d="M0 0L0 0L0 0L0 0L0 0L0 0L0 0L0 0L0 0Z" transform="translate(492 8)"></path><path d="M2.7 1.6L2.7 7L-2.7 7L-2.7 1.6L-7.4 -1.1L-4.7 -5.8L0 -3.1L4.7 -5.8L7.4 -1.1Z" transform="translate(51 150)"></path><path d="M0 0L0 0L0 0L0 0L0 0L0 0L0 0L0 0L0 0Z" transform="translate(560 582)"></path><path d="M2.7 1.6L2.7 7L-2.7 7L-2.7 1.6L-7.4 -1.1L-4.7 -5.8L0 -3.1L4.7 -5.8L7.4 -1.1Z" transform="translate(677 49)"></path><path d="M1.6 0.9L1.6 4.2L-1.6 4.2L-1.6 0.9L-4.4 -0.7L-2.8 -3.5L0 -1.9L2.8 -3.5L4.4 -0.7Z" transform="translate(450 233)"></path><path d="M3 1.7L3 7.7L-3 7.7L-3 1.7L-8.1 -1.3L-5.1 -6.4L0 -3.4L5.1 -6.4L8.1 -1.3Z" transform="translate(448 412)"></path><path d="M2.7 1.6L2.7 7L-2.7 7L-2.7 1.6L-7.4 -1.1L-4.7 -5.8L0 -3.1L4.7 -5.8L7.4 -1.1Z" transform="translate(592 331)"></path><path d="M3 1.7L3 7.7L-3 7.7L-3 1.7L-8.1 -1.3L-5.1 -6.4L0 -3.4L5.1 -6.4L8.1 -1.3Z" transform="translate(373 585)"></path><path d="M2.2 1.2L2.2 5.6L-2.2 5.6L-2.2 1.2L-5.9 -0.9L-3.7 -4.7L0 -2.5L3.7 -4.7L5.9 -0.9Z" transform="translate(739 478)"></path><path d="M1.6 0.9L1.6 4.2L-1.6 4.2L-1.6 0.9L-4.4 -0.7L-2.8 -3.5L0 -1.9L2.8 -3.5L4.4 -0.7Z" transform="translate(328 266)"></path><path d="M0.8 0.5L0.8 2.1L-0.8 2.1L-0.8 0.5L-2.2 -0.3L-1.4 -1.7L0 -0.9L1.4 -1.7L2.2 -0.3Z" transform="translate(703 103)"></path><path d="M0 0L0 0L0 0L0 0L0 0L0 0L0 0L0 0L0 0Z" transform="translate(886 176)"></path><path d="M1.6 0.9L1.6 4.2L-1.6 4.2L-1.6 0.9L-4.4 -0.7L-2.8 -3.5L0 -1.9L2.8 -3.5L4.4 -0.7Z" transform="translate(643 509)"></path><path d="M1.9 1.1L1.9 4.9L-1.9 4.9L-1.9 1.1L-5.2 -0.8L-3.3 -4.1L0 -2.2L3.3 -4.1L5.2 -0.8Z" transform="translate(663 112)"></path><path d="M2.7 1.6L2.7 7L-2.7 7L-2.7 1.6L-7.4 -1.1L-4.7 -5.8L0 -3.1L4.7 -5.8L7.4 -1.1Z" transform="translate(141 301)"></path><path d="M2.2 1.2L2.2 5.6L-2.2 5.6L-2.2 1.2L-5.9 -0.9L-3.7 -4.7L0 -2.5L3.7 -4.7L5.9 -0.9Z" transform="translate(822 289)"></path><path d="M3 1.7L3 7.7L-3 7.7L-3 1.7L-8.1 -1.3L-5.1 -6.4L0 -3.4L5.1 -6.4L8.1 -1.3Z" transform="translate(652 336)"></path><path d="M2.7 1.6L2.7 7L-2.7 7L-2.7 1.6L-7.4 -1.1L-4.7 -5.8L0 -3.1L4.7 -5.8L7.4 -1.1Z" transform="translate(794 221)"></path><path d="M0.5 0.3L0.5 1.4L-0.5 1.4L-0.5 0.3L-1.5 -0.2L-0.9 -1.2L0 -0.6L0.9 -1.2L1.5 -0.2Z" transform="translate(705 564)"></path><path d="M3.2 1.9L3.2 8.3L-3.2 8.3L-3.2 1.9L-8.8 -1.4L-5.6 -7L0 -3.7L5.6 -7L8.8 -1.4Z" transform="translate(428 3)"></path><path d="M2.2 1.2L2.2 5.6L-2.2 5.6L-2.2 1.2L-5.9 -0.9L-3.7 -4.7L0 -2.5L3.7 -4.7L5.9 -0.9Z" transform="translate(206 457)"></path><path d="M2.7 1.6L2.7 7L-2.7 7L-2.7 1.6L-7.4 -1.1L-4.7 -5.8L0 -3.1L4.7 -5.8L7.4 -1.1Z" transform="translate(817 546)"></path><path d="M0.5 0.3L0.5 1.4L-0.5 1.4L-0.5 0.3L-1.5 -0.2L-0.9 -1.2L0 -0.6L0.9 -1.2L1.5 -0.2Z" transform="translate(73 303)"></path><path d="M3.2 1.9L3.2 8.3L-3.2 8.3L-3.2 1.9L-8.8 -1.4L-5.6 -7L0 -3.7L5.6 -7L8.8 -1.4Z" transform="translate(262 364)"></path><path d="M1.1 0.6L1.1 2.8L-1.1 2.8L-1.1 0.6L-2.9 -0.5L-1.9 -2.3L0 -1.2L1.9 -2.3L2.9 -0.5Z" transform="translate(257 405)"></path><path d="M0 0L0 0L0 0L0 0L0 0L0 0L0 0L0 0L0 0Z" transform="translate(263 27)"></path><path d="M1.9 1.1L1.9 4.9L-1.9 4.9L-1.9 1.1L-5.2 -0.8L-3.3 -4.1L0 -2.2L3.3 -4.1L5.2 -0.8Z" transform="translate(235 491)"></path><path d="M0.3 0.2L0.3 0.7L-0.3 0.7L-0.3 0.2L-0.7 -0.1L-0.5 -0.6L0 -0.3L0.5 -0.6L0.7 -0.1Z" transform="translate(88 587)"></path><path d="M3.2 1.9L3.2 8.3L-3.2 8.3L-3.2 1.9L-8.8 -1.4L-5.6 -7L0 -3.7L5.6 -7L8.8 -1.4Z" transform="translate(218 28)"></path><path d="M0.8 0.5L0.8 2.1L-0.8 2.1L-0.8 0.5L-2.2 -0.3L-1.4 -1.7L0 -0.9L1.4 -1.7L2.2 -0.3Z" transform="translate(43 207)"></path><path d="M3 1.7L3 7.7L-3 7.7L-3 1.7L-8.1 -1.3L-5.1 -6.4L0 -3.4L5.1 -6.4L8.1 -1.3Z" transform="translate(56 88)"></path><path d="M1.3 0.8L1.3 3.5L-1.3 3.5L-1.3 0.8L-3.7 -0.6L-2.3 -2.9L0 -1.6L2.3 -2.9L3.7 -0.6Z" transform="translate(42 310)"></path><path d="M0.5 0.3L0.5 1.4L-0.5 1.4L-0.5 0.3L-1.5 -0.2L-0.9 -1.2L0 -0.6L0.9 -1.2L1.5 -0.2Z" transform="translate(776 18)"></path><path d="M3 1.7L3 7.7L-3 7.7L-3 1.7L-8.1 -1.3L-5.1 -6.4L0 -3.4L5.1 -6.4L8.1 -1.3Z" transform="translate(132 526)"></path><path d="M2.4 1.4L2.4 6.3L-2.4 6.3L-2.4 1.4L-6.6 -1L-4.2 -5.2L0 -2.8L4.2 -5.2L6.6 -1Z" transform="translate(613 314)"></path><path d="M1.9 1.1L1.9 4.9L-1.9 4.9L-1.9 1.1L-5.2 -0.8L-3.3 -4.1L0 -2.2L3.3 -4.1L5.2 -0.8Z" transform="translate(557 482)"></path><path d="M1.6 0.9L1.6 4.2L-1.6 4.2L-1.6 0.9L-4.4 -0.7L-2.8 -3.5L0 -1.9L2.8 -3.5L4.4 -0.7Z" transform="translate(96 81)"></path><path d="M3.2 1.9L3.2 8.3L-3.2 8.3L-3.2 1.9L-8.8 -1.4L-5.6 -7L0 -3.7L5.6 -7L8.8 -1.4Z" transform="translate(547 431)"></path><path d="M0.3 0.2L0.3 0.7L-0.3 0.7L-0.3 0.2L-0.7 -0.1L-0.5 -0.6L0 -0.3L0.5 -0.6L0.7 -0.1Z" transform="translate(732 385)"></path><path d="M3 1.7L3 7.7L-3 7.7L-3 1.7L-8.1 -1.3L-5.1 -6.4L0 -3.4L5.1 -6.4L8.1 -1.3Z" transform="translate(179 533)"></path><path d="M3 1.7L3 7.7L-3 7.7L-3 1.7L-8.1 -1.3L-5.1 -6.4L0 -3.4L5.1 -6.4L8.1 -1.3Z" transform="translate(257 119)"></path><path d="M1.6 0.9L1.6 4.2L-1.6 4.2L-1.6 0.9L-4.4 -0.7L-2.8 -3.5L0 -1.9L2.8 -3.5L4.4 -0.7Z" transform="translate(436 43)"></path><path d="M0.3 0.2L0.3 0.7L-0.3 0.7L-0.3 0.2L-0.7 -0.1L-0.5 -0.6L0 -0.3L0.5 -0.6L0.7 -0.1Z" transform="translate(100 301)"></path><path d="M2.2 1.2L2.2 5.6L-2.2 5.6L-2.2 1.2L-5.9 -0.9L-3.7 -4.7L0 -2.5L3.7 -4.7L5.9 -0.9Z" transform="translate(344 221)"></path><path d="M1.6 0.9L1.6 4.2L-1.6 4.2L-1.6 0.9L-4.4 -0.7L-2.8 -3.5L0 -1.9L2.8 -3.5L4.4 -0.7Z" transform="translate(375 144)"></path><path d="M1.1 0.6L1.1 2.8L-1.1 2.8L-1.1 0.6L-2.9 -0.5L-1.9 -2.3L0 -1.2L1.9 -2.3L2.9 -0.5Z" transform="translate(159 348)"></path><path d="M0 0L0 0L0 0L0 0L0 0L0 0L0 0L0 0L0 0Z" transform="translate(511 363)"></path><path d="M3.2 1.9L3.2 8.3L-3.2 8.3L-3.2 1.9L-8.8 -1.4L-5.6 -7L0 -3.7L5.6 -7L8.8 -1.4Z" transform="translate(27 53)"></path><path d="M1.1 0.6L1.1 2.8L-1.1 2.8L-1.1 0.6L-2.9 -0.5L-1.9 -2.3L0 -1.2L1.9 -2.3L2.9 -0.5Z" transform="translate(346 431)"></path><path d="M0 0L0 0L0 0L0 0L0 0L0 0L0 0L0 0L0 0Z" transform="translate(445 300)"></path><path d="M3.2 1.9L3.2 8.3L-3.2 8.3L-3.2 1.9L-8.8 -1.4L-5.6 -7L0 -3.7L5.6 -7L8.8 -1.4Z" transform="translate(94 541)"></path><path d="M3 1.7L3 7.7L-3 7.7L-3 1.7L-8.1 -1.3L-5.1 -6.4L0 -3.4L5.1 -6.4L8.1 -1.3Z" transform="translate(432 325)"></path><path d="M0.8 0.5L0.8 2.1L-0.8 2.1L-0.8 0.5L-2.2 -0.3L-1.4 -1.7L0 -0.9L1.4 -1.7L2.2 -0.3Z" transform="translate(655 211)"></path><path d="M0 0L0 0L0 0L0 0L0 0L0 0L0 0L0 0L0 0Z" transform="translate(687 444)"></path><path d="M0.8 0.5L0.8 2.1L-0.8 2.1L-0.8 0.5L-2.2 -0.3L-1.4 -1.7L0 -0.9L1.4 -1.7L2.2 -0.3Z" transform="translate(540 309)"></path><path d="M1.1 0.6L1.1 2.8L-1.1 2.8L-1.1 0.6L-2.9 -0.5L-1.9 -2.3L0 -1.2L1.9 -2.3L2.9 -0.5Z" transform="translate(722 300)"></path><path d="M3 1.7L3 7.7L-3 7.7L-3 1.7L-8.1 -1.3L-5.1 -6.4L0 -3.4L5.1 -6.4L8.1 -1.3Z" transform="translate(242 524)"></path><path d="M0 0L0 0L0 0L0 0L0 0L0 0L0 0L0 0L0 0Z" transform="translate(411 396)"></path><path d="M1.1 0.6L1.1 2.8L-1.1 2.8L-1.1 0.6L-2.9 -0.5L-1.9 -2.3L0 -1.2L1.9 -2.3L2.9 -0.5Z" transform="translate(665 370)"></path><path d="M0.8 0.5L0.8 2.1L-0.8 2.1L-0.8 0.5L-2.2 -0.3L-1.4 -1.7L0 -0.9L1.4 -1.7L2.2 -0.3Z" transform="translate(297 346)"></path><path d="M1.9 1.1L1.9 4.9L-1.9 4.9L-1.9 1.1L-5.2 -0.8L-3.3 -4.1L0 -2.2L3.3 -4.1L5.2 -0.8Z" transform="translate(363 510)"></path><path d="M3.2 1.9L3.2 8.3L-3.2 8.3L-3.2 1.9L-8.8 -1.4L-5.6 -7L0 -3.7L5.6 -7L8.8 -1.4Z" transform="translate(549 284)"></path><path d="M0.3 0.2L0.3 0.7L-0.3 0.7L-0.3 0.2L-0.7 -0.1L-0.5 -0.6L0 -0.3L0.5 -0.6L0.7 -0.1Z" transform="translate(530 221)"></path><path d="M1.3 0.8L1.3 3.5L-1.3 3.5L-1.3 0.8L-3.7 -0.6L-2.3 -2.9L0 -1.6L2.3 -2.9L3.7 -0.6Z" transform="translate(484 494)"></path><path d="M1.6 0.9L1.6 4.2L-1.6 4.2L-1.6 0.9L-4.4 -0.7L-2.8 -3.5L0 -1.9L2.8 -3.5L4.4 -0.7Z" transform="translate(683 519)"></path><path d="M3.2 1.9L3.2 8.3L-3.2 8.3L-3.2 1.9L-8.8 -1.4L-5.6 -7L0 -3.7L5.6 -7L8.8 -1.4Z" transform="translate(245 303)"></path><path d="M2.4 1.4L2.4 6.3L-2.4 6.3L-2.4 1.4L-6.6 -1L-4.2 -5.2L0 -2.8L4.2 -5.2L6.6 -1Z" transform="translate(517 397)"></path><path d="M1.6 0.9L1.6 4.2L-1.6 4.2L-1.6 0.9L-4.4 -0.7L-2.8 -3.5L0 -1.9L2.8 -3.5L4.4 -0.7Z" transform="translate(363 246)"></path><path d="M2.2 1.2L2.2 5.6L-2.2 5.6L-2.2 1.2L-5.9 -0.9L-3.7 -4.7L0 -2.5L3.7 -4.7L5.9 -0.9Z" transform="translate(762 333)"></path><path d="M2.4 1.4L2.4 6.3L-2.4 6.3L-2.4 1.4L-6.6 -1L-4.2 -5.2L0 -2.8L4.2 -5.2L6.6 -1Z" transform="translate(765 60)"></path><path d="M2.4 1.4L2.4 6.3L-2.4 6.3L-2.4 1.4L-6.6 -1L-4.2 -5.2L0 -2.8L4.2 -5.2L6.6 -1Z" transform="translate(468 283)"></path><path d="M1.9 1.1L1.9 4.9L-1.9 4.9L-1.9 1.1L-5.2 -0.8L-3.3 -4.1L0 -2.2L3.3 -4.1L5.2 -0.8Z" transform="translate(326 466)"></path><path d="M2.4 1.4L2.4 6.3L-2.4 6.3L-2.4 1.4L-6.6 -1L-4.2 -5.2L0 -2.8L4.2 -5.2L6.6 -1Z" transform="translate(166 446)"></path><path d="M2.2 1.2L2.2 5.6L-2.2 5.6L-2.2 1.2L-5.9 -0.9L-3.7 -4.7L0 -2.5L3.7 -4.7L5.9 -0.9Z" transform="translate(128 25)"></path><path d="M1.3 0.8L1.3 3.5L-1.3 3.5L-1.3 0.8L-3.7 -0.6L-2.3 -2.9L0 -1.6L2.3 -2.9L3.7 -0.6Z" transform="translate(837 421)"></path><path d="M1.9 1.1L1.9 4.9L-1.9 4.9L-1.9 1.1L-5.2 -0.8L-3.3 -4.1L0 -2.2L3.3 -4.1L5.2 -0.8Z" transform="translate(12 537)"></path><path d="M2.4 1.4L2.4 6.3L-2.4 6.3L-2.4 1.4L-6.6 -1L-4.2 -5.2L0 -2.8L4.2 -5.2L6.6 -1Z" transform="translate(589 568)"></path><path d="M2.7 1.6L2.7 7L-2.7 7L-2.7 1.6L-7.4 -1.1L-4.7 -5.8L0 -3.1L4.7 -5.8L7.4 -1.1Z" transform="translate(873 140)"></path><path d="M2.7 1.6L2.7 7L-2.7 7L-2.7 1.6L-7.4 -1.1L-4.7 -5.8L0 -3.1L4.7 -5.8L7.4 -1.1Z" transform="translate(200 166)"></path><path d="M1.3 0.8L1.3 3.5L-1.3 3.5L-1.3 0.8L-3.7 -0.6L-2.3 -2.9L0 -1.6L2.3 -2.9L3.7 -0.6Z" transform="translate(891 20)"></path><path d="M2.2 1.2L2.2 5.6L-2.2 5.6L-2.2 1.2L-5.9 -0.9L-3.7 -4.7L0 -2.5L3.7 -4.7L5.9 -0.9Z" transform="translate(149 401)"></path><path d="M1.6 0.9L1.6 4.2L-1.6 4.2L-1.6 0.9L-4.4 -0.7L-2.8 -3.5L0 -1.9L2.8 -3.5L4.4 -0.7Z" transform="translate(494 183)"></path><path d="M1.6 0.9L1.6 4.2L-1.6 4.2L-1.6 0.9L-4.4 -0.7L-2.8 -3.5L0 -1.9L2.8 -3.5L4.4 -0.7Z" transform="translate(575 502)"></path><path d="M1.9 1.1L1.9 4.9L-1.9 4.9L-1.9 1.1L-5.2 -0.8L-3.3 -4.1L0 -2.2L3.3 -4.1L5.2 -0.8Z" transform="translate(246 247)"></path><path d="M2.4 1.4L2.4 6.3L-2.4 6.3L-2.4 1.4L-6.6 -1L-4.2 -5.2L0 -2.8L4.2 -5.2L6.6 -1Z" transform="translate(96 395)"></path><path d="M0.5 0.3L0.5 1.4L-0.5 1.4L-0.5 0.3L-1.5 -0.2L-0.9 -1.2L0 -0.6L0.9 -1.2L1.5 -0.2Z" transform="translate(564 331)"></path><path d="M0.8 0.5L0.8 2.1L-0.8 2.1L-0.8 0.5L-2.2 -0.3L-1.4 -1.7L0 -0.9L1.4 -1.7L2.2 -0.3Z" transform="translate(324 164)"></path><path d="M2.7 1.6L2.7 7L-2.7 7L-2.7 1.6L-7.4 -1.1L-4.7 -5.8L0 -3.1L4.7 -5.8L7.4 -1.1Z" transform="translate(134 191)"></path><path d="M3.2 1.9L3.2 8.3L-3.2 8.3L-3.2 1.9L-8.8 -1.4L-5.6 -7L0 -3.7L5.6 -7L8.8 -1.4Z" transform="translate(83 462)"></path><path d="M1.1 0.6L1.1 2.8L-1.1 2.8L-1.1 0.6L-2.9 -0.5L-1.9 -2.3L0 -1.2L1.9 -2.3L2.9 -0.5Z" transform="translate(90 250)"></path><path d="M0.8 0.5L0.8 2.1L-0.8 2.1L-0.8 0.5L-2.2 -0.3L-1.4 -1.7L0 -0.9L1.4 -1.7L2.2 -0.3Z" transform="translate(216 338)"></path><path d="M1.3 0.8L1.3 3.5L-1.3 3.5L-1.3 0.8L-3.7 -0.6L-2.3 -2.9L0 -1.6L2.3 -2.9L3.7 -0.6Z" transform="translate(462 579)"></path><path d="M1.6 0.9L1.6 4.2L-1.6 4.2L-1.6 0.9L-4.4 -0.7L-2.8 -3.5L0 -1.9L2.8 -3.5L4.4 -0.7Z" transform="translate(550 244)"></path><path d="M0.3 0.2L0.3 0.7L-0.3 0.7L-0.3 0.2L-0.7 -0.1L-0.5 -0.6L0 -0.3L0.5 -0.6L0.7 -0.1Z" transform="translate(618 146)"></path><path d="M2.4 1.4L2.4 6.3L-2.4 6.3L-2.4 1.4L-6.6 -1L-4.2 -5.2L0 -2.8L4.2 -5.2L6.6 -1Z" transform="translate(413 254)"></path><path d="M2.2 1.2L2.2 5.6L-2.2 5.6L-2.2 1.2L-5.9 -0.9L-3.7 -4.7L0 -2.5L3.7 -4.7L5.9 -0.9Z" transform="translate(119 560)"></path><path d="M1.9 1.1L1.9 4.9L-1.9 4.9L-1.9 1.1L-5.2 -0.8L-3.3 -4.1L0 -2.2L3.3 -4.1L5.2 -0.8Z" transform="translate(87 211)"></path><path d="M0.5 0.3L0.5 1.4L-0.5 1.4L-0.5 0.3L-1.5 -0.2L-0.9 -1.2L0 -0.6L0.9 -1.2L1.5 -0.2Z" transform="translate(487 413)"></path><path d="M2.4 1.4L2.4 6.3L-2.4 6.3L-2.4 1.4L-6.6 -1L-4.2 -5.2L0 -2.8L4.2 -5.2L6.6 -1Z" transform="translate(824 108)"></path><path d="M0.5 0.3L0.5 1.4L-0.5 1.4L-0.5 0.3L-1.5 -0.2L-0.9 -1.2L0 -0.6L0.9 -1.2L1.5 -0.2Z" transform="translate(292 253)"></path><path d="M1.9 1.1L1.9 4.9L-1.9 4.9L-1.9 1.1L-5.2 -0.8L-3.3 -4.1L0 -2.2L3.3 -4.1L5.2 -0.8Z" transform="translate(304 542)"></path><path d="M0.8 0.5L0.8 2.1L-0.8 2.1L-0.8 0.5L-2.2 -0.3L-1.4 -1.7L0 -0.9L1.4 -1.7L2.2 -0.3Z" transform="translate(22 262)"></path><path d="M1.9 1.1L1.9 4.9L-1.9 4.9L-1.9 1.1L-5.2 -0.8L-3.3 -4.1L0 -2.2L3.3 -4.1L5.2 -0.8Z" transform="translate(603 236)"></path><path d="M3.2 1.9L3.2 8.3L-3.2 8.3L-3.2 1.9L-8.8 -1.4L-5.6 -7L0 -3.7L5.6 -7L8.8 -1.4Z" transform="translate(641 67)"></path><path d="M1.9 1.1L1.9 4.9L-1.9 4.9L-1.9 1.1L-5.2 -0.8L-3.3 -4.1L0 -2.2L3.3 -4.1L5.2 -0.8Z" transform="translate(344 359)"></path><path d="M0.5 0.3L0.5 1.4L-0.5 1.4L-0.5 0.3L-1.5 -0.2L-0.9 -1.2L0 -0.6L0.9 -1.2L1.5 -0.2Z" transform="translate(523 38)"></path><path d="M1.1 0.6L1.1 2.8L-1.1 2.8L-1.1 0.6L-2.9 -0.5L-1.9 -2.3L0 -1.2L1.9 -2.3L2.9 -0.5Z" transform="translate(306 62)"></path><path d="M2.4 1.4L2.4 6.3L-2.4 6.3L-2.4 1.4L-6.6 -1L-4.2 -5.2L0 -2.8L4.2 -5.2L6.6 -1Z" transform="translate(457 186)"></path><path d="M2.7 1.6L2.7 7L-2.7 7L-2.7 1.6L-7.4 -1.1L-4.7 -5.8L0 -3.1L4.7 -5.8L7.4 -1.1Z" transform="translate(230 384)"></path><path d="M0.3 0.2L0.3 0.7L-0.3 0.7L-0.3 0.2L-0.7 -0.1L-0.5 -0.6L0 -0.3L0.5 -0.6L0.7 -0.1Z" transform="translate(492 577)"></path><path d="M1.9 1.1L1.9 4.9L-1.9 4.9L-1.9 1.1L-5.2 -0.8L-3.3 -4.1L0 -2.2L3.3 -4.1L5.2 -0.8Z" transform="translate(215 117)"></path><path d="M3.2 1.9L3.2 8.3L-3.2 8.3L-3.2 1.9L-8.8 -1.4L-5.6 -7L0 -3.7L5.6 -7L8.8 -1.4Z" transform="translate(16 334)"></path><path d="M0.3 0.2L0.3 0.7L-0.3 0.7L-0.3 0.2L-0.7 -0.1L-0.5 -0.6L0 -0.3L0.5 -0.6L0.7 -0.1Z" transform="translate(880 388)"></path><path d="M0 0L0 0L0 0L0 0L0 0L0 0L0 0L0 0L0 0Z" transform="translate(691 227)"></path><path d="M1.6 0.9L1.6 4.2L-1.6 4.2L-1.6 0.9L-4.4 -0.7L-2.8 -3.5L0 -1.9L2.8 -3.5L4.4 -0.7Z" transform="translate(635 7)"></path><path d="M3.2 1.9L3.2 8.3L-3.2 8.3L-3.2 1.9L-8.8 -1.4L-5.6 -7L0 -3.7L5.6 -7L8.8 -1.4Z" transform="translate(334 402)"></path><path d="M3 1.7L3 7.7L-3 7.7L-3 1.7L-8.1 -1.3L-5.1 -6.4L0 -3.4L5.1 -6.4L8.1 -1.3Z" transform="translate(583 467)"></path><path d="M3 1.7L3 7.7L-3 7.7L-3 1.7L-8.1 -1.3L-5.1 -6.4L0 -3.4L5.1 -6.4L8.1 -1.3Z" transform="translate(814 455)"></path><path d="M1.6 0.9L1.6 4.2L-1.6 4.2L-1.6 0.9L-4.4 -0.7L-2.8 -3.5L0 -1.9L2.8 -3.5L4.4 -0.7Z" transform="translate(315 198)"></path><path d="M1.9 1.1L1.9 4.9L-1.9 4.9L-1.9 1.1L-5.2 -0.8L-3.3 -4.1L0 -2.2L3.3 -4.1L5.2 -0.8Z" transform="translate(25 187)"></path><path d="M0.5 0.3L0.5 1.4L-0.5 1.4L-0.5 0.3L-1.5 -0.2L-0.9 -1.2L0 -0.6L0.9 -1.2L1.5 -0.2Z" transform="translate(497 136)"></path><path d="M0.3 0.2L0.3 0.7L-0.3 0.7L-0.3 0.2L-0.7 -0.1L-0.5 -0.6L0 -0.3L0.5 -0.6L0.7 -0.1Z" transform="translate(870 561)"></path><path d="M3 1.7L3 7.7L-3 7.7L-3 1.7L-8.1 -1.3L-5.1 -6.4L0 -3.4L5.1 -6.4L8.1 -1.3Z" transform="translate(157 78)"></path><path d="M1.6 0.9L1.6 4.2L-1.6 4.2L-1.6 0.9L-4.4 -0.7L-2.8 -3.5L0 -1.9L2.8 -3.5L4.4 -0.7Z" transform="translate(713 353)"></path><path d="M2.7 1.6L2.7 7L-2.7 7L-2.7 1.6L-7.4 -1.1L-4.7 -5.8L0 -3.1L4.7 -5.8L7.4 -1.1Z" transform="translate(607 547)"></path><path d="M2.2 1.2L2.2 5.6L-2.2 5.6L-2.2 1.2L-5.9 -0.9L-3.7 -4.7L0 -2.5L3.7 -4.7L5.9 -0.9Z" transform="translate(267 444)"></path><path d="M3.2 1.9L3.2 8.3L-3.2 8.3L-3.2 1.9L-8.8 -1.4L-5.6 -7L0 -3.7L5.6 -7L8.8 -1.4Z" transform="translate(437 209)"></path><path d="M3 1.7L3 7.7L-3 7.7L-3 1.7L-8.1 -1.3L-5.1 -6.4L0 -3.4L5.1 -6.4L8.1 -1.3Z" transform="translate(182 581)"></path><path d="M1.1 0.6L1.1 2.8L-1.1 2.8L-1.1 0.6L-2.9 -0.5L-1.9 -2.3L0 -1.2L1.9 -2.3L2.9 -0.5Z" transform="translate(787 80)"></path><path d="M2.7 1.6L2.7 7L-2.7 7L-2.7 1.6L-7.4 -1.1L-4.7 -5.8L0 -3.1L4.7 -5.8L7.4 -1.1Z" transform="translate(794 144)"></path><path d="M0.5 0.3L0.5 1.4L-0.5 1.4L-0.5 0.3L-1.5 -0.2L-0.9 -1.2L0 -0.6L0.9 -1.2L1.5 -0.2Z" transform="translate(848 454)"></path><path d="M2.4 1.4L2.4 6.3L-2.4 6.3L-2.4 1.4L-6.6 -1L-4.2 -5.2L0 -2.8L4.2 -5.2L6.6 -1Z" transform="translate(457 64)"></path><path d="M2.2 1.2L2.2 5.6L-2.2 5.6L-2.2 1.2L-5.9 -0.9L-3.7 -4.7L0 -2.5L3.7 -4.7L5.9 -0.9Z" transform="translate(203 513)"></path><path d="M1.9 1.1L1.9 4.9L-1.9 4.9L-1.9 1.1L-5.2 -0.8L-3.3 -4.1L0 -2.2L3.3 -4.1L5.2 -0.8Z" transform="translate(282 143)"></path><path d="M1.3 0.8L1.3 3.5L-1.3 3.5L-1.3 0.8L-3.7 -0.6L-2.3 -2.9L0 -1.6L2.3 -2.9L3.7 -0.6Z" transform="translate(22 594)"></path><path d="M0.8 0.5L0.8 2.1L-0.8 2.1L-0.8 0.5L-2.2 -0.3L-1.4 -1.7L0 -0.9L1.4 -1.7L2.2 -0.3Z" transform="translate(159 251)"></path><path d="M0 0L0 0L0 0L0 0L0 0L0 0L0 0L0 0L0 0Z" transform="translate(884 487)"></path><path d="M1.1 0.6L1.1 2.8L-1.1 2.8L-1.1 0.6L-2.9 -0.5L-1.9 -2.3L0 -1.2L1.9 -2.3L2.9 -0.5Z" transform="translate(201 431)"></path><path d="M0.3 0.2L0.3 0.7L-0.3 0.7L-0.3 0.2L-0.7 -0.1L-0.5 -0.6L0 -0.3L0.5 -0.6L0.7 -0.1Z" transform="translate(346 1)"></path><path d="M0.5 0.3L0.5 1.4L-0.5 1.4L-0.5 0.3L-1.5 -0.2L-0.9 -1.2L0 -0.6L0.9 -1.2L1.5 -0.2Z" transform="translate(381 320)"></path><path d="M1.9 1.1L1.9 4.9L-1.9 4.9L-1.9 1.1L-5.2 -0.8L-3.3 -4.1L0 -2.2L3.3 -4.1L5.2 -0.8Z" transform="translate(754 185)"></path><path d="M1.1 0.6L1.1 2.8L-1.1 2.8L-1.1 0.6L-2.9 -0.5L-1.9 -2.3L0 -1.2L1.9 -2.3L2.9 -0.5Z" transform="translate(290 396)"></path><path d="M2.7 1.6L2.7 7L-2.7 7L-2.7 1.6L-7.4 -1.1L-4.7 -5.8L0 -3.1L4.7 -5.8L7.4 -1.1Z" transform="translate(874 346)"></path><path d="M0.5 0.3L0.5 1.4L-0.5 1.4L-0.5 0.3L-1.5 -0.2L-0.9 -1.2L0 -0.6L0.9 -1.2L1.5 -0.2Z" transform="translate(506 445)"></path><path d="M2.2 1.2L2.2 5.6L-2.2 5.6L-2.2 1.2L-5.9 -0.9L-3.7 -4.7L0 -2.5L3.7 -4.7L5.9 -0.9Z" transform="translate(266 281)"></path><path d="M1.6 0.9L1.6 4.2L-1.6 4.2L-1.6 0.9L-4.4 -0.7L-2.8 -3.5L0 -1.9L2.8 -3.5L4.4 -0.7Z" transform="translate(798 580)"></path><path d="M0.8 0.5L0.8 2.1L-0.8 2.1L-0.8 0.5L-2.2 -0.3L-1.4 -1.7L0 -0.9L1.4 -1.7L2.2 -0.3Z" transform="translate(649 547)"></path><path d="M1.1 0.6L1.1 2.8L-1.1 2.8L-1.1 0.6L-2.9 -0.5L-1.9 -2.3L0 -1.2L1.9 -2.3L2.9 -0.5Z" transform="translate(762 411)"></path><path d="M0.5 0.3L0.5 1.4L-0.5 1.4L-0.5 0.3L-1.5 -0.2L-0.9 -1.2L0 -0.6L0.9 -1.2L1.5 -0.2Z" transform="translate(650 479)"></path><path d="M0.5 0.3L0.5 1.4L-0.5 1.4L-0.5 0.3L-1.5 -0.2L-0.9 -1.2L0 -0.6L0.9 -1.2L1.5 -0.2Z" transform="translate(657 145)"></path><path d="M3 1.7L3 7.7L-3 7.7L-3 1.7L-8.1 -1.3L-5.1 -6.4L0 -3.4L5.1 -6.4L8.1 -1.3Z" transform="translate(734 236)"></path><path d="M1.3 0.8L1.3 3.5L-1.3 3.5L-1.3 0.8L-3.7 -0.6L-2.3 -2.9L0 -1.6L2.3 -2.9L3.7 -0.6Z" transform="translate(145 105)"></path><path d="M1.1 0.6L1.1 2.8L-1.1 2.8L-1.1 0.6L-2.9 -0.5L-1.9 -2.3L0 -1.2L1.9 -2.3L2.9 -0.5Z" transform="translate(776 380)"></path><path d="M0.3 0.2L0.3 0.7L-0.3 0.7L-0.3 0.2L-0.7 -0.1L-0.5 -0.6L0 -0.3L0.5 -0.6L0.7 -0.1Z" transform="translate(232 554)"></path><path d="M3 1.7L3 7.7L-3 7.7L-3 1.7L-8.1 -1.3L-5.1 -6.4L0 -3.4L5.1 -6.4L8.1 -1.3Z" transform="translate(613 470)"></path><path d="M3.2 1.9L3.2 8.3L-3.2 8.3L-3.2 1.9L-8.8 -1.4L-5.6 -7L0 -3.7L5.6 -7L8.8 -1.4Z" transform="translate(273 2)"></path><path d="M1.3 0.8L1.3 3.5L-1.3 3.5L-1.3 0.8L-3.7 -0.6L-2.3 -2.9L0 -1.6L2.3 -2.9L3.7 -0.6Z" transform="translate(105 345)"></path><path d="M3.2 1.9L3.2 8.3L-3.2 8.3L-3.2 1.9L-8.8 -1.4L-5.6 -7L0 -3.7L5.6 -7L8.8 -1.4Z" transform="translate(32 129)"></path><path d="M1.9 1.1L1.9 4.9L-1.9 4.9L-1.9 1.1L-5.2 -0.8L-3.3 -4.1L0 -2.2L3.3 -4.1L5.2 -0.8Z" transform="translate(697 597)"></path><path d="M0.3 0.2L0.3 0.7L-0.3 0.7L-0.3 0.2L-0.7 -0.1L-0.5 -0.6L0 -0.3L0.5 -0.6L0.7 -0.1Z" transform="translate(765 161)"></path><path d="M2.7 1.6L2.7 7L-2.7 7L-2.7 1.6L-7.4 -1.1L-4.7 -5.8L0 -3.1L4.7 -5.8L7.4 -1.1Z" transform="translate(122 223)"></path><path d="M1.6 0.9L1.6 4.2L-1.6 4.2L-1.6 0.9L-4.4 -0.7L-2.8 -3.5L0 -1.9L2.8 -3.5L4.4 -0.7Z" transform="translate(865 321)"></path><path d="M0.3 0.2L0.3 0.7L-0.3 0.7L-0.3 0.2L-0.7 -0.1L-0.5 -0.6L0 -0.3L0.5 -0.6L0.7 -0.1Z" transform="translate(316 379)"></path><path d="M0.3 0.2L0.3 0.7L-0.3 0.7L-0.3 0.2L-0.7 -0.1L-0.5 -0.6L0 -0.3L0.5 -0.6L0.7 -0.1Z" transform="translate(675 570)"></path><path d="M1.6 0.9L1.6 4.2L-1.6 4.2L-1.6 0.9L-4.4 -0.7L-2.8 -3.5L0 -1.9L2.8 -3.5L4.4 -0.7Z" transform="translate(408 296)"></path><path d="M0.3 0.2L0.3 0.7L-0.3 0.7L-0.3 0.2L-0.7 -0.1L-0.5 -0.6L0 -0.3L0.5 -0.6L0.7 -0.1Z" transform="translate(429 472)"></path><path d="M3.2 1.9L3.2 8.3L-3.2 8.3L-3.2 1.9L-8.8 -1.4L-5.6 -7L0 -3.7L5.6 -7L8.8 -1.4Z" transform="translate(198 68)"></path><path d="M0.8 0.5L0.8 2.1L-0.8 2.1L-0.8 0.5L-2.2 -0.3L-1.4 -1.7L0 -0.9L1.4 -1.7L2.2 -0.3Z" transform="translate(523 576)"></path><path d="M1.1 0.6L1.1 2.8L-1.1 2.8L-1.1 0.6L-2.9 -0.5L-1.9 -2.3L0 -1.2L1.9 -2.3L2.9 -0.5Z" transform="translate(83 131)"></path><path d="M0.3 0.2L0.3 0.7L-0.3 0.7L-0.3 0.2L-0.7 -0.1L-0.5 -0.6L0 -0.3L0.5 -0.6L0.7 -0.1Z" transform="translate(556 188)"></path><path d="M0.8 0.5L0.8 2.1L-0.8 2.1L-0.8 0.5L-2.2 -0.3L-1.4 -1.7L0 -0.9L1.4 -1.7L2.2 -0.3Z" transform="translate(564 91)"></path><path d="M3 1.7L3 7.7L-3 7.7L-3 1.7L-8.1 -1.3L-5.1 -6.4L0 -3.4L5.1 -6.4L8.1 -1.3Z" transform="translate(895 593)"></path><path d="M0.3 0.2L0.3 0.7L-0.3 0.7L-0.3 0.2L-0.7 -0.1L-0.5 -0.6L0 -0.3L0.5 -0.6L0.7 -0.1Z" transform="translate(612 400)"></path><path d="M2.2 1.2L2.2 5.6L-2.2 5.6L-2.2 1.2L-5.9 -0.9L-3.7 -4.7L0 -2.5L3.7 -4.7L5.9 -0.9Z" transform="translate(495 244)"></path><path d="M1.3 0.8L1.3 3.5L-1.3 3.5L-1.3 0.8L-3.7 -0.6L-2.3 -2.9L0 -1.6L2.3 -2.9L3.7 -0.6Z" transform="translate(385 197)"></path><path d="M1.3 0.8L1.3 3.5L-1.3 3.5L-1.3 0.8L-3.7 -0.6L-2.3 -2.9L0 -1.6L2.3 -2.9L3.7 -0.6Z" transform="translate(66 441)"></path><path d="M1.6 0.9L1.6 4.2L-1.6 4.2L-1.6 0.9L-4.4 -0.7L-2.8 -3.5L0 -1.9L2.8 -3.5L4.4 -0.7Z" transform="translate(427 594)"></path><path d="M1.6 0.9L1.6 4.2L-1.6 4.2L-1.6 0.9L-4.4 -0.7L-2.8 -3.5L0 -1.9L2.8 -3.5L4.4 -0.7Z" transform="translate(507 78)"></path><path d="M1.6 0.9L1.6 4.2L-1.6 4.2L-1.6 0.9L-4.4 -0.7L-2.8 -3.5L0 -1.9L2.8 -3.5L4.4 -0.7Z" transform="translate(609 434)"></path><path d="M2.7 1.6L2.7 7L-2.7 7L-2.7 1.6L-7.4 -1.1L-4.7 -5.8L0 -3.1L4.7 -5.8L7.4 -1.1Z" transform="translate(224 179)"></path><path d="M2.2 1.2L2.2 5.6L-2.2 5.6L-2.2 1.2L-5.9 -0.9L-3.7 -4.7L0 -2.5L3.7 -4.7L5.9 -0.9Z" transform="translate(607 82)"></path><path d="M3 1.7L3 7.7L-3 7.7L-3 1.7L-8.1 -1.3L-5.1 -6.4L0 -3.4L5.1 -6.4L8.1 -1.3Z" transform="translate(569 545)"></path><path d="M1.1 0.6L1.1 2.8L-1.1 2.8L-1.1 0.6L-2.9 -0.5L-1.9 -2.3L0 -1.2L1.9 -2.3L2.9 -0.5Z" transform="translate(41 532)"></path><path d="M1.1 0.6L1.1 2.8L-1.1 2.8L-1.1 0.6L-2.9 -0.5L-1.9 -2.3L0 -1.2L1.9 -2.3L2.9 -0.5Z" transform="translate(894 535)"></path><path d="M3.2 1.9L3.2 8.3L-3.2 8.3L-3.2 1.9L-8.8 -1.4L-5.6 -7L0 -3.7L5.6 -7L8.8 -1.4Z" transform="translate(845 169)"></path><path d="M2.2 1.2L2.2 5.6L-2.2 5.6L-2.2 1.2L-5.9 -0.9L-3.7 -4.7L0 -2.5L3.7 -4.7L5.9 -0.9Z" transform="translate(252 56)"></path><path d="M0.5 0.3L0.5 1.4L-0.5 1.4L-0.5 0.3L-1.5 -0.2L-0.9 -1.2L0 -0.6L0.9 -1.2L1.5 -0.2Z" transform="translate(377 275)"></path><path d="M2.7 1.6L2.7 7L-2.7 7L-2.7 1.6L-7.4 -1.1L-4.7 -5.8L0 -3.1L4.7 -5.8L7.4 -1.1Z" transform="translate(855 484)"></path><path d="M0.8 0.5L0.8 2.1L-0.8 2.1L-0.8 0.5L-2.2 -0.3L-1.4 -1.7L0 -0.9L1.4 -1.7L2.2 -0.3Z" transform="translate(162 285)"></path><path d="M2.7 1.6L2.7 7L-2.7 7L-2.7 1.6L-7.4 -1.1L-4.7 -5.8L0 -3.1L4.7 -5.8L7.4 -1.1Z" transform="translate(711 501)"></path><path d="M2.7 1.6L2.7 7L-2.7 7L-2.7 1.6L-7.4 -1.1L-4.7 -5.8L0 -3.1L4.7 -5.8L7.4 -1.1Z" transform="translate(739 142)"></path><path d="M3.2 1.9L3.2 8.3L-3.2 8.3L-3.2 1.9L-8.8 -1.4L-5.6 -7L0 -3.7L5.6 -7L8.8 -1.4Z" transform="translate(653 406)"></path><path d="M1.1 0.6L1.1 2.8L-1.1 2.8L-1.1 0.6L-2.9 -0.5L-1.9 -2.3L0 -1.2L1.9 -2.3L2.9 -0.5Z" transform="translate(31 425)"></path><path d="M1.6 0.9L1.6 4.2L-1.6 4.2L-1.6 0.9L-4.4 -0.7L-2.8 -3.5L0 -1.9L2.8 -3.5L4.4 -0.7Z" transform="translate(700 323)"></path><path d="M3 1.7L3 7.7L-3 7.7L-3 1.7L-8.1 -1.3L-5.1 -6.4L0 -3.4L5.1 -6.4L8.1 -1.3Z" transform="translate(108 429)"></path><path d="M1.1 0.6L1.1 2.8L-1.1 2.8L-1.1 0.6L-2.9 -0.5L-1.9 -2.3L0 -1.2L1.9 -2.3L2.9 -0.5Z" transform="translate(246 144)"></path><path d="M0 0L0 0L0 0L0 0L0 0L0 0L0 0L0 0L0 0Z" transform="translate(658 284)"></path><path d="M0.5 0.3L0.5 1.4L-0.5 1.4L-0.5 0.3L-1.5 -0.2L-0.9 -1.2L0 -0.6L0.9 -1.2L1.5 -0.2Z" transform="translate(466 540)"></path><path d="M2.4 1.4L2.4 6.3L-2.4 6.3L-2.4 1.4L-6.6 -1L-4.2 -5.2L0 -2.8L4.2 -5.2L6.6 -1Z" transform="translate(875 278)"></path><path d="M0.5 0.3L0.5 1.4L-0.5 1.4L-0.5 0.3L-1.5 -0.2L-0.9 -1.2L0 -0.6L0.9 -1.2L1.5 -0.2Z" transform="translate(495 327)"></path><path d="M0.3 0.2L0.3 0.7L-0.3 0.7L-0.3 0.2L-0.7 -0.1L-0.5 -0.6L0 -0.3L0.5 -0.6L0.7 -0.1Z" transform="translate(281 180)"></path><path d="M0.3 0.2L0.3 0.7L-0.3 0.7L-0.3 0.2L-0.7 -0.1L-0.5 -0.6L0 -0.3L0.5 -0.6L0.7 -0.1Z" transform="translate(105 160)"></path><path d="M3.2 1.9L3.2 8.3L-3.2 8.3L-3.2 1.9L-8.8 -1.4L-5.6 -7L0 -3.7L5.6 -7L8.8 -1.4Z" transform="translate(860 195)"></path><path d="M3 1.7L3 7.7L-3 7.7L-3 1.7L-8.1 -1.3L-5.1 -6.4L0 -3.4L5.1 -6.4L8.1 -1.3Z" transform="translate(807 261)"></path><path d="M0.8 0.5L0.8 2.1L-0.8 2.1L-0.8 0.5L-2.2 -0.3L-1.4 -1.7L0 -0.9L1.4 -1.7L2.2 -0.3Z" transform="translate(723 583)"></path><path d="M1.3 0.8L1.3 3.5L-1.3 3.5L-1.3 0.8L-3.7 -0.6L-2.3 -2.9L0 -1.6L2.3 -2.9L3.7 -0.6Z" transform="translate(784 535)"></path><path d="M1.9 1.1L1.9 4.9L-1.9 4.9L-1.9 1.1L-5.2 -0.8L-3.3 -4.1L0 -2.2L3.3 -4.1L5.2 -0.8Z" transform="translate(208 259)"></path><path d="M3.2 1.9L3.2 8.3L-3.2 8.3L-3.2 1.9L-8.8 -1.4L-5.6 -7L0 -3.7L5.6 -7L8.8 -1.4Z" transform="translate(597 119)"></path><path d="M3.2 1.9L3.2 8.3L-3.2 8.3L-3.2 1.9L-8.8 -1.4L-5.6 -7L0 -3.7L5.6 -7L8.8 -1.4Z" transform="translate(123 368)"></path><path d="M2.7 1.6L2.7 7L-2.7 7L-2.7 1.6L-7.4 -1.1L-4.7 -5.8L0 -3.1L4.7 -5.8L7.4 -1.1Z" transform="translate(872 440)"></path><path d="M0.5 0.3L0.5 1.4L-0.5 1.4L-0.5 0.3L-1.5 -0.2L-0.9 -1.2L0 -0.6L0.9 -1.2L1.5 -0.2Z" transform="translate(595 190)"></path><path d="M1.6 0.9L1.6 4.2L-1.6 4.2L-1.6 0.9L-4.4 -0.7L-2.8 -3.5L0 -1.9L2.8 -3.5L4.4 -0.7Z" transform="translate(26 392)"></path><path d="M2.4 1.4L2.4 6.3L-2.4 6.3L-2.4 1.4L-6.6 -1L-4.2 -5.2L0 -2.8L4.2 -5.2L6.6 -1Z" transform="translate(374 409)"></path><path d="M0.3 0.2L0.3 0.7L-0.3 0.7L-0.3 0.2L-0.7 -0.1L-0.5 -0.6L0 -0.3L0.5 -0.6L0.7 -0.1Z" transform="translate(267 533)"></path><path d="M1.9 1.1L1.9 4.9L-1.9 4.9L-1.9 1.1L-5.2 -0.8L-3.3 -4.1L0 -2.2L3.3 -4.1L5.2 -0.8Z" transform="translate(35 235)"></path><path d="M3.2 1.9L3.2 8.3L-3.2 8.3L-3.2 1.9L-8.8 -1.4L-5.6 -7L0 -3.7L5.6 -7L8.8 -1.4Z" transform="translate(526 510)"></path><path d="M3.2 1.9L3.2 8.3L-3.2 8.3L-3.2 1.9L-8.8 -1.4L-5.6 -7L0 -3.7L5.6 -7L8.8 -1.4Z" transform="translate(844 12)"></path><path d="M0.3 0.2L0.3 0.7L-0.3 0.7L-0.3 0.2L-0.7 -0.1L-0.5 -0.6L0 -0.3L0.5 -0.6L0.7 -0.1Z" transform="translate(380 461)"></path><path d="M1.3 0.8L1.3 3.5L-1.3 3.5L-1.3 0.8L-3.7 -0.6L-2.3 -2.9L0 -1.6L2.3 -2.9L3.7 -0.6Z" transform="translate(822 376)"></path><path d="M0.8 0.5L0.8 2.1L-0.8 2.1L-0.8 0.5L-2.2 -0.3L-1.4 -1.7L0 -0.9L1.4 -1.7L2.2 -0.3Z" transform="translate(354 549)"></path><path d="M1.6 0.9L1.6 4.2L-1.6 4.2L-1.6 0.9L-4.4 -0.7L-2.8 -3.5L0 -1.9L2.8 -3.5L4.4 -0.7Z" transform="translate(370 60)"></path><path d="M2.2 1.2L2.2 5.6L-2.2 5.6L-2.2 1.2L-5.9 -0.9L-3.7 -4.7L0 -2.5L3.7 -4.7L5.9 -0.9Z" transform="translate(600 367)"></path><path d="M0.3 0.2L0.3 0.7L-0.3 0.7L-0.3 0.2L-0.7 -0.1L-0.5 -0.6L0 -0.3L0.5 -0.6L0.7 -0.1Z" transform="translate(729 446)"></path><path d="M2.7 1.6L2.7 7L-2.7 7L-2.7 1.6L-7.4 -1.1L-4.7 -5.8L0 -3.1L4.7 -5.8L7.4 -1.1Z" transform="translate(422 102)"></path><path d="M0 0L0 0L0 0L0 0L0 0L0 0L0 0L0 0L0 0Z" transform="translate(29 92)"></path><path d="M2.4 1.4L2.4 6.3L-2.4 6.3L-2.4 1.4L-6.6 -1L-4.2 -5.2L0 -2.8L4.2 -5.2L6.6 -1Z" transform="translate(536 150)"></path><path d="M1.1 0.6L1.1 2.8L-1.1 2.8L-1.1 0.6L-2.9 -0.5L-1.9 -2.3L0 -1.2L1.9 -2.3L2.9 -0.5Z" transform="translate(836 256)"></path><path d="M2.7 1.6L2.7 7L-2.7 7L-2.7 1.6L-7.4 -1.1L-4.7 -5.8L0 -3.1L4.7 -5.8L7.4 -1.1Z" transform="translate(860 92)"></path><path d="M1.3 0.8L1.3 3.5L-1.3 3.5L-1.3 0.8L-3.7 -0.6L-2.3 -2.9L0 -1.6L2.3 -2.9L3.7 -0.6Z" transform="translate(436 168)"></path><path d="M0 0L0 0L0 0L0 0L0 0L0 0L0 0L0 0L0 0Z" transform="translate(392 542)"></path><path d="M1.9 1.1L1.9 4.9L-1.9 4.9L-1.9 1.1L-5.2 -0.8L-3.3 -4.1L0 -2.2L3.3 -4.1L5.2 -0.8Z" transform="translate(50 341)"></path><path d="M3 1.7L3 7.7L-3 7.7L-3 1.7L-8.1 -1.3L-5.1 -6.4L0 -3.4L5.1 -6.4L8.1 -1.3Z" transform="translate(278 493)"></path><path d="M1.6 0.9L1.6 4.2L-1.6 4.2L-1.6 0.9L-4.4 -0.7L-2.8 -3.5L0 -1.9L2.8 -3.5L4.4 -0.7Z" transform="translate(277 82)"></path><path d="M1.6 0.9L1.6 4.2L-1.6 4.2L-1.6 0.9L-4.4 -0.7L-2.8 -3.5L0 -1.9L2.8 -3.5L4.4 -0.7Z" transform="translate(266 214)"></path><path d="M2.7 1.6L2.7 7L-2.7 7L-2.7 1.6L-7.4 -1.1L-4.7 -5.8L0 -3.1L4.7 -5.8L7.4 -1.1Z" transform="translate(898 298)"></path><path d="M0.3 0.2L0.3 0.7L-0.3 0.7L-0.3 0.2L-0.7 -0.1L-0.5 -0.6L0 -0.3L0.5 -0.6L0.7 -0.1Z" transform="translate(404 68)"></path><path d="M0 0L0 0L0 0L0 0L0 0L0 0L0 0L0 0L0 0Z" transform="translate(629 171)"></path><path d="M3.2 1.9L3.2 8.3L-3.2 8.3L-3.2 1.9L-8.8 -1.4L-5.6 -7L0 -3.7L5.6 -7L8.8 -1.4Z" transform="translate(746 512)"></path><path d="M1.3 0.8L1.3 3.5L-1.3 3.5L-1.3 0.8L-3.7 -0.6L-2.3 -2.9L0 -1.6L2.3 -2.9L3.7 -0.6Z" transform="translate(898 216)"></path><path d="M2.2 1.2L2.2 5.6L-2.2 5.6L-2.2 1.2L-5.9 -0.9L-3.7 -4.7L0 -2.5L3.7 -4.7L5.9 -0.9Z" transform="translate(479 220)"></path><path d="M0.3 0.2L0.3 0.7L-0.3 0.7L-0.3 0.2L-0.7 -0.1L-0.5 -0.6L0 -0.3L0.5 -0.6L0.7 -0.1Z" transform="translate(159 48)"></path><path d="M2.7 1.6L2.7 7L-2.7 7L-2.7 1.6L-7.4 -1.1L-4.7 -5.8L0 -3.1L4.7 -5.8L7.4 -1.1Z" transform="translate(795 111)"></path><path d="M3.2 1.9L3.2 8.3L-3.2 8.3L-3.2 1.9L-8.8 -1.4L-5.6 -7L0 -3.7L5.6 -7L8.8 -1.4Z" transform="translate(128 267)"></path><path d="M0.5 0.3L0.5 1.4L-0.5 1.4L-0.5 0.3L-1.5 -0.2L-0.9 -1.2L0 -0.6L0.9 -1.2L1.5 -0.2Z" transform="translate(8 236)"></path><path d="M1.1 0.6L1.1 2.8L-1.1 2.8L-1.1 0.6L-2.9 -0.5L-1.9 -2.3L0 -1.2L1.9 -2.3L2.9 -0.5Z" transform="translate(44 563)"></path><path d="M1.9 1.1L1.9 4.9L-1.9 4.9L-1.9 1.1L-5.2 -0.8L-3.3 -4.1L0 -2.2L3.3 -4.1L5.2 -0.8Z" transform="translate(386 34)"></path><path d="M2.2 1.2L2.2 5.6L-2.2 5.6L-2.2 1.2L-5.9 -0.9L-3.7 -4.7L0 -2.5L3.7 -4.7L5.9 -0.9Z" transform="translate(545 59)"></path><path d="M1.9 1.1L1.9 4.9L-1.9 4.9L-1.9 1.1L-5.2 -0.8L-3.3 -4.1L0 -2.2L3.3 -4.1L5.2 -0.8Z" transform="translate(413 131)"></path><path d="M1.9 1.1L1.9 4.9L-1.9 4.9L-1.9 1.1L-5.2 -0.8L-3.3 -4.1L0 -2.2L3.3 -4.1L5.2 -0.8Z" transform="translate(356 311)"></path><path d="M0.5 0.3L0.5 1.4L-0.5 1.4L-0.5 0.3L-1.5 -0.2L-0.9 -1.2L0 -0.6L0.9 -1.2L1.5 -0.2Z" transform="translate(891 90)"></path><path d="M0.8 0.5L0.8 2.1L-0.8 2.1L-0.8 0.5L-2.2 -0.3L-1.4 -1.7L0 -0.9L1.4 -1.7L2.2 -0.3Z" transform="translate(574 209)"></path><path d="M2.7 1.6L2.7 7L-2.7 7L-2.7 1.6L-7.4 -1.1L-4.7 -5.8L0 -3.1L4.7 -5.8L7.4 -1.1Z" transform="translate(88 48)"></path><path d="M2.2 1.2L2.2 5.6L-2.2 5.6L-2.2 1.2L-5.9 -0.9L-3.7 -4.7L0 -2.5L3.7 -4.7L5.9 -0.9Z" transform="translate(87 21)"></path><path d="M1.1 0.6L1.1 2.8L-1.1 2.8L-1.1 0.6L-2.9 -0.5L-1.9 -2.3L0 -1.2L1.9 -2.3L2.9 -0.5Z" transform="translate(233 215)"></path><path d="M2.2 1.2L2.2 5.6L-2.2 5.6L-2.2 1.2L-5.9 -0.9L-3.7 -4.7L0 -2.5L3.7 -4.7L5.9 -0.9Z" transform="translate(637 268)"></path><path d="M1.6 0.9L1.6 4.2L-1.6 4.2L-1.6 0.9L-4.4 -0.7L-2.8 -3.5L0 -1.9L2.8 -3.5L4.4 -0.7Z" transform="translate(725 538)"></path><path d="M0.8 0.5L0.8 2.1L-0.8 2.1L-0.8 0.5L-2.2 -0.3L-1.4 -1.7L0 -0.9L1.4 -1.7L2.2 -0.3Z" transform="translate(668 247)"></path><path d="M2.2 1.2L2.2 5.6L-2.2 5.6L-2.2 1.2L-5.9 -0.9L-3.7 -4.7L0 -2.5L3.7 -4.7L5.9 -0.9Z" transform="translate(834 193)"></path><path d="M0.5 0.3L0.5 1.4L-0.5 1.4L-0.5 0.3L-1.5 -0.2L-0.9 -1.2L0 -0.6L0.9 -1.2L1.5 -0.2Z" transform="translate(810 33)"></path><path d="M3.2 1.9L3.2 8.3L-3.2 8.3L-3.2 1.9L-8.8 -1.4L-5.6 -7L0 -3.7L5.6 -7L8.8 -1.4Z" transform="translate(325 95)"></path><path d="M2.7 1.6L2.7 7L-2.7 7L-2.7 1.6L-7.4 -1.1L-4.7 -5.8L0 -3.1L4.7 -5.8L7.4 -1.1Z" transform="translate(742 9)"></path><path d="M3.2 1.9L3.2 8.3L-3.2 8.3L-3.2 1.9L-8.8 -1.4L-5.6 -7L0 -3.7L5.6 -7L8.8 -1.4Z" transform="translate(757 263)"></path><path d="M0.8 0.5L0.8 2.1L-0.8 2.1L-0.8 0.5L-2.2 -0.3L-1.4 -1.7L0 -0.9L1.4 -1.7L2.2 -0.3Z" transform="translate(434 360)"></path><path d="M1.9 1.1L1.9 4.9L-1.9 4.9L-1.9 1.1L-5.2 -0.8L-3.3 -4.1L0 -2.2L3.3 -4.1L5.2 -0.8Z" transform="translate(41 16)"></path><path d="M0.3 0.2L0.3 0.7L-0.3 0.7L-0.3 0.2L-0.7 -0.1L-0.5 -0.6L0 -0.3L0.5 -0.6L0.7 -0.1Z" transform="translate(574 264)"></path><path d="M3 1.7L3 7.7L-3 7.7L-3 1.7L-8.1 -1.3L-5.1 -6.4L0 -3.4L5.1 -6.4L8.1 -1.3Z" transform="translate(790 295)"></path><path d="M0.3 0.2L0.3 0.7L-0.3 0.7L-0.3 0.2L-0.7 -0.1L-0.5 -0.6L0 -0.3L0.5 -0.6L0.7 -0.1Z" transform="translate(70 374)"></path><path d="M3.2 1.9L3.2 8.3L-3.2 8.3L-3.2 1.9L-8.8 -1.4L-5.6 -7L0 -3.7L5.6 -7L8.8 -1.4Z" transform="translate(474 33)"></path><path d="M0.3 0.2L0.3 0.7L-0.3 0.7L-0.3 0.2L-0.7 -0.1L-0.5 -0.6L0 -0.3L0.5 -0.6L0.7 -0.1Z" transform="translate(61 500)"></path><path d="M1.1 0.6L1.1 2.8L-1.1 2.8L-1.1 0.6L-2.9 -0.5L-1.9 -2.3L0 -1.2L1.9 -2.3L2.9 -0.5Z" transform="translate(375 352)"></path><path d="M0.3 0.2L0.3 0.7L-0.3 0.7L-0.3 0.2L-0.7 -0.1L-0.5 -0.6L0 -0.3L0.5 -0.6L0.7 -0.1Z" transform="translate(815 517)"></path><path d="M0.8 0.5L0.8 2.1L-0.8 2.1L-0.8 0.5L-2.2 -0.3L-1.4 -1.7L0 -0.9L1.4 -1.7L2.2 -0.3Z" transform="translate(360 86)"></path><path d="M1.1 0.6L1.1 2.8L-1.1 2.8L-1.1 0.6L-2.9 -0.5L-1.9 -2.3L0 -1.2L1.9 -2.3L2.9 -0.5Z" transform="translate(794 433)"></path><path d="M1.6 0.9L1.6 4.2L-1.6 4.2L-1.6 0.9L-4.4 -0.7L-2.8 -3.5L0 -1.9L2.8 -3.5L4.4 -0.7Z" transform="translate(406 346)"></path><path d="M1.6 0.9L1.6 4.2L-1.6 4.2L-1.6 0.9L-4.4 -0.7L-2.8 -3.5L0 -1.9L2.8 -3.5L4.4 -0.7Z" transform="translate(638 454)"></path><path d="M0.5 0.3L0.5 1.4L-0.5 1.4L-0.5 0.3L-1.5 -0.2L-0.9 -1.2L0 -0.6L0.9 -1.2L1.5 -0.2Z" transform="translate(805 491)"></path><path d="M2.2 1.2L2.2 5.6L-2.2 5.6L-2.2 1.2L-5.9 -0.9L-3.7 -4.7L0 -2.5L3.7 -4.7L5.9 -0.9Z" transform="translate(285 114)"></path><path d="M1.9 1.1L1.9 4.9L-1.9 4.9L-1.9 1.1L-5.2 -0.8L-3.3 -4.1L0 -2.2L3.3 -4.1L5.2 -0.8Z" transform="translate(39 463)"></path><path d="M0.5 0.3L0.5 1.4L-0.5 1.4L-0.5 0.3L-1.5 -0.2L-0.9 -1.2L0 -0.6L0.9 -1.2L1.5 -0.2Z" transform="translate(201 376)"></path><path d="M1.9 1.1L1.9 4.9L-1.9 4.9L-1.9 1.1L-5.2 -0.8L-3.3 -4.1L0 -2.2L3.3 -4.1L5.2 -0.8Z" transform="translate(688 410)"></path><path d="M2.2 1.2L2.2 5.6L-2.2 5.6L-2.2 1.2L-5.9 -0.9L-3.7 -4.7L0 -2.5L3.7 -4.7L5.9 -0.9Z" transform="translate(270 574)"></path><path d="M0.5 0.3L0.5 1.4L-0.5 1.4L-0.5 0.3L-1.5 -0.2L-0.9 -1.2L0 -0.6L0.9 -1.2L1.5 -0.2Z" transform="translate(293 294)"></path><path d="M1.9 1.1L1.9 4.9L-1.9 4.9L-1.9 1.1L-5.2 -0.8L-3.3 -4.1L0 -2.2L3.3 -4.1L5.2 -0.8Z" transform="translate(844 362)"></path><path d="M2.4 1.4L2.4 6.3L-2.4 6.3L-2.4 1.4L-6.6 -1L-4.2 -5.2L0 -2.8L4.2 -5.2L6.6 -1Z" transform="translate(792 340)"></path><path d="M1.1 0.6L1.1 2.8L-1.1 2.8L-1.1 0.6L-2.9 -0.5L-1.9 -2.3L0 -1.2L1.9 -2.3L2.9 -0.5Z" transform="translate(461 322)"></path><path d="M0 0L0 0L0 0L0 0L0 0L0 0L0 0L0 0L0 0Z" transform="translate(201 196)"></path><path d="M0 0L0 0L0 0L0 0L0 0L0 0L0 0L0 0L0 0Z" transform="translate(115 486)"></path><path d="M1.6 0.9L1.6 4.2L-1.6 4.2L-1.6 0.9L-4.4 -0.7L-2.8 -3.5L0 -1.9L2.8 -3.5L4.4 -0.7Z" transform="translate(348 37)"></path><path d="M2.2 1.2L2.2 5.6L-2.2 5.6L-2.2 1.2L-5.9 -0.9L-3.7 -4.7L0 -2.5L3.7 -4.7L5.9 -0.9Z" transform="translate(772 592)"></path><path d="M3 1.7L3 7.7L-3 7.7L-3 1.7L-8.1 -1.3L-5.1 -6.4L0 -3.4L5.1 -6.4L8.1 -1.3Z" transform="translate(392 432)"></path><path d="M0.5 0.3L0.5 1.4L-0.5 1.4L-0.5 0.3L-1.5 -0.2L-0.9 -1.2L0 -0.6L0.9 -1.2L1.5 -0.2Z" transform="translate(129 70)"></path><path d="M0.8 0.5L0.8 2.1L-0.8 2.1L-0.8 0.5L-2.2 -0.3L-1.4 -1.7L0 -0.9L1.4 -1.7L2.2 -0.3Z" transform="translate(350 187)"></path><path d="M0.8 0.5L0.8 2.1L-0.8 2.1L-0.8 0.5L-2.2 -0.3L-1.4 -1.7L0 -0.9L1.4 -1.7L2.2 -0.3Z" transform="translate(18 489)"></path><path d="M0 0L0 0L0 0L0 0L0 0L0 0L0 0L0 0L0 0Z" transform="translate(527 10)"></path><path d="M2.4 1.4L2.4 6.3L-2.4 6.3L-2.4 1.4L-6.6 -1L-4.2 -5.2L0 -2.8L4.2 -5.2L6.6 -1Z" transform="translate(378 5)"></path><path d="M2.4 1.4L2.4 6.3L-2.4 6.3L-2.4 1.4L-6.6 -1L-4.2 -5.2L0 -2.8L4.2 -5.2L6.6 -1Z" transform="translate(115 121)"></path><path d="M2.4 1.4L2.4 6.3L-2.4 6.3L-2.4 1.4L-6.6 -1L-4.2 -5.2L0 -2.8L4.2 -5.2L6.6 -1Z" transform="translate(898 363)"></path><path d="M2.7 1.6L2.7 7L-2.7 7L-2.7 1.6L-7.4 -1.1L-4.7 -5.8L0 -3.1L4.7 -5.8L7.4 -1.1Z" transform="translate(570 300)"></path><path d="M3 1.7L3 7.7L-3 7.7L-3 1.7L-8.1 -1.3L-5.1 -6.4L0 -3.4L5.1 -6.4L8.1 -1.3Z" transform="translate(638 122)"></path><path d="M3 1.7L3 7.7L-3 7.7L-3 1.7L-8.1 -1.3L-5.1 -6.4L0 -3.4L5.1 -6.4L8.1 -1.3Z" transform="translate(260 331)"></path><path d="M3 1.7L3 7.7L-3 7.7L-3 1.7L-8.1 -1.3L-5.1 -6.4L0 -3.4L5.1 -6.4L8.1 -1.3Z" transform="translate(119 319)"></path><path d="M0 0L0 0L0 0L0 0L0 0L0 0L0 0L0 0L0 0Z" transform="translate(609 599)"></path><path d="M0.5 0.3L0.5 1.4L-0.5 1.4L-0.5 0.3L-1.5 -0.2L-0.9 -1.2L0 -0.6L0.9 -1.2L1.5 -0.2Z" transform="translate(553 518)"></path><path d="M0 0L0 0L0 0L0 0L0 0L0 0L0 0L0 0L0 0Z" transform="translate(735 416)"></path><path d="M1.9 1.1L1.9 4.9L-1.9 4.9L-1.9 1.1L-5.2 -0.8L-3.3 -4.1L0 -2.2L3.3 -4.1L5.2 -0.8Z" transform="translate(192 288)"></path><path d="M3 1.7L3 7.7L-3 7.7L-3 1.7L-8.1 -1.3L-5.1 -6.4L0 -3.4L5.1 -6.4L8.1 -1.3Z" transform="translate(678 182)"></path><path d="M3 1.7L3 7.7L-3 7.7L-3 1.7L-8.1 -1.3L-5.1 -6.4L0 -3.4L5.1 -6.4L8.1 -1.3Z" transform="translate(503 110)"></path><path d="M0 0L0 0L0 0L0 0L0 0L0 0L0 0L0 0L0 0Z" transform="translate(821 322)"></path><path d="M0 0L0 0L0 0L0 0L0 0L0 0L0 0L0 0L0 0Z" transform="translate(847 44)"></path><path d="M0.5 0.3L0.5 1.4L-0.5 1.4L-0.5 0.3L-1.5 -0.2L-0.9 -1.2L0 -0.6L0.9 -1.2L1.5 -0.2Z" transform="translate(317 438)"></path><path d="M2.2 1.2L2.2 5.6L-2.2 5.6L-2.2 1.2L-5.9 -0.9L-3.7 -4.7L0 -2.5L3.7 -4.7L5.9 -0.9Z" transform="translate(187 13)"></path><path d="M1.3 0.8L1.3 3.5L-1.3 3.5L-1.3 0.8L-3.7 -0.6L-2.3 -2.9L0 -1.6L2.3 -2.9L3.7 -0.6Z" transform="translate(159 132)"></path><path d="M2.2 1.2L2.2 5.6L-2.2 5.6L-2.2 1.2L-5.9 -0.9L-3.7 -4.7L0 -2.5L3.7 -4.7L5.9 -0.9Z" transform="translate(740 43)"></path><path d="M0 0L0 0L0 0L0 0L0 0L0 0L0 0L0 0L0 0Z" transform="translate(312 121)"></path><path d="M0.3 0.2L0.3 0.7L-0.3 0.7L-0.3 0.2L-0.7 -0.1L-0.5 -0.6L0 -0.3L0.5 -0.6L0.7 -0.1Z" transform="translate(833 134)"></path><path d="M0 0L0 0L0 0L0 0L0 0L0 0L0 0L0 0L0 0Z" transform="translate(606 27)"></path><path d="M0.8 0.5L0.8 2.1L-0.8 2.1L-0.8 0.5L-2.2 -0.3L-1.4 -1.7L0 -0.9L1.4 -1.7L2.2 -0.3Z" transform="translate(570 405)"></path><path d="M0.5 0.3L0.5 1.4L-0.5 1.4L-0.5 0.3L-1.5 -0.2L-0.9 -1.2L0 -0.6L0.9 -1.2L1.5 -0.2Z" transform="translate(70 189)"></path><path d="M2.2 1.2L2.2 5.6L-2.2 5.6L-2.2 1.2L-5.9 -0.9L-3.7 -4.7L0 -2.5L3.7 -4.7L5.9 -0.9Z" transform="translate(248 92)"></path><path d="M2.7 1.6L2.7 7L-2.7 7L-2.7 1.6L-7.4 -1.1L-4.7 -5.8L0 -3.1L4.7 -5.8L7.4 -1.1Z" transform="translate(695 273)"></path><path d="M2.4 1.4L2.4 6.3L-2.4 6.3L-2.4 1.4L-6.6 -1L-4.2 -5.2L0 -2.8L4.2 -5.2L6.6 -1Z" transform="translate(708 9)"></path><path d="M1.9 1.1L1.9 4.9L-1.9 4.9L-1.9 1.1L-5.2 -0.8L-3.3 -4.1L0 -2.2L3.3 -4.1L5.2 -0.8Z" transform="translate(689 126)"></path><path d="M0 0L0 0L0 0L0 0L0 0L0 0L0 0L0 0L0 0Z" transform="translate(255 190)"></path><path d="M0 0L0 0L0 0L0 0L0 0L0 0L0 0L0 0L0 0Z" transform="translate(152 569)"></path><path d="M1.6 0.9L1.6 4.2L-1.6 4.2L-1.6 0.9L-4.4 -0.7L-2.8 -3.5L0 -1.9L2.8 -3.5L4.4 -0.7Z" transform="translate(156 219)"></path><path d="M2.4 1.4L2.4 6.3L-2.4 6.3L-2.4 1.4L-6.6 -1L-4.2 -5.2L0 -2.8L4.2 -5.2L6.6 -1Z" transform="translate(681 344)"></path><path d="M0.8 0.5L0.8 2.1L-0.8 2.1L-0.8 0.5L-2.2 -0.3L-1.4 -1.7L0 -0.9L1.4 -1.7L2.2 -0.3Z" transform="translate(163 506)"></path><path d="M0.3 0.2L0.3 0.7L-0.3 0.7L-0.3 0.2L-0.7 -0.1L-0.5 -0.6L0 -0.3L0.5 -0.6L0.7 -0.1Z" transform="translate(720 171)"></path><path d="M2.2 1.2L2.2 5.6L-2.2 5.6L-2.2 1.2L-5.9 -0.9L-3.7 -4.7L0 -2.5L3.7 -4.7L5.9 -0.9Z" transform="translate(495 549)"></path><path d="M0.8 0.5L0.8 2.1L-0.8 2.1L-0.8 0.5L-2.2 -0.3L-1.4 -1.7L0 -0.9L1.4 -1.7L2.2 -0.3Z" transform="translate(65 242)"></path><path d="M1.1 0.6L1.1 2.8L-1.1 2.8L-1.1 0.6L-2.9 -0.5L-1.9 -2.3L0 -1.2L1.9 -2.3L2.9 -0.5Z" transform="translate(188 342)"></path><path d="M3 1.7L3 7.7L-3 7.7L-3 1.7L-8.1 -1.3L-5.1 -6.4L0 -3.4L5.1 -6.4L8.1 -1.3Z" transform="translate(94 505)"></path><path d="M1.1 0.6L1.1 2.8L-1.1 2.8L-1.1 0.6L-2.9 -0.5L-1.9 -2.3L0 -1.2L1.9 -2.3L2.9 -0.5Z" transform="translate(51 596)"></path><path d="M1.1 0.6L1.1 2.8L-1.1 2.8L-1.1 0.6L-2.9 -0.5L-1.9 -2.3L0 -1.2L1.9 -2.3L2.9 -0.5Z" transform="translate(655 29)"></path><path d="M0.5 0.3L0.5 1.4L-0.5 1.4L-0.5 0.3L-1.5 -0.2L-0.9 -1.2L0 -0.6L0.9 -1.2L1.5 -0.2Z" transform="translate(164 173)"></path><path d="M1.1 0.6L1.1 2.8L-1.1 2.8L-1.1 0.6L-2.9 -0.5L-1.9 -2.3L0 -1.2L1.9 -2.3L2.9 -0.5Z" transform="translate(851 537)"></path><path d="M3.2 1.9L3.2 8.3L-3.2 8.3L-3.2 1.9L-8.8 -1.4L-5.6 -7L0 -3.7L5.6 -7L8.8 -1.4Z" transform="translate(300 25)"></path><path d="M0.3 0.2L0.3 0.7L-0.3 0.7L-0.3 0.2L-0.7 -0.1L-0.5 -0.6L0 -0.3L0.5 -0.6L0.7 -0.1Z" transform="translate(876 61)"></path><path d="M2.2 1.2L2.2 5.6L-2.2 5.6L-2.2 1.2L-5.9 -0.9L-3.7 -4.7L0 -2.5L3.7 -4.7L5.9 -0.9Z" transform="translate(718 70)"></path><path d="M2.2 1.2L2.2 5.6L-2.2 5.6L-2.2 1.2L-5.9 -0.9L-3.7 -4.7L0 -2.5L3.7 -4.7L5.9 -0.9Z" transform="translate(643 581)"></path><path d="M3 1.7L3 7.7L-3 7.7L-3 1.7L-8.1 -1.3L-5.1 -6.4L0 -3.4L5.1 -6.4L8.1 -1.3Z" transform="translate(406 217)"></path><path d="M2.4 1.4L2.4 6.3L-2.4 6.3L-2.4 1.4L-6.6 -1L-4.2 -5.2L0 -2.8L4.2 -5.2L6.6 -1Z" transform="translate(17 299)"></path><path d="M1.6 0.9L1.6 4.2L-1.6 4.2L-1.6 0.9L-4.4 -0.7L-2.8 -3.5L0 -1.9L2.8 -3.5L4.4 -0.7Z" transform="translate(536 345)"></path><path d="M3 1.7L3 7.7L-3 7.7L-3 1.7L-8.1 -1.3L-5.1 -6.4L0 -3.4L5.1 -6.4L8.1 -1.3Z" transform="translate(772 501)"></path><path d="M2.2 1.2L2.2 5.6L-2.2 5.6L-2.2 1.2L-5.9 -0.9L-3.7 -4.7L0 -2.5L3.7 -4.7L5.9 -0.9Z" transform="translate(473 468)"></path><path d="M1.6 0.9L1.6 4.2L-1.6 4.2L-1.6 0.9L-4.4 -0.7L-2.8 -3.5L0 -1.9L2.8 -3.5L4.4 -0.7Z" transform="translate(795 178)"></path><path d="M3 1.7L3 7.7L-3 7.7L-3 1.7L-8.1 -1.3L-5.1 -6.4L0 -3.4L5.1 -6.4L8.1 -1.3Z" transform="translate(800 405)"></path><path d="M0.8 0.5L0.8 2.1L-0.8 2.1L-0.8 0.5L-2.2 -0.3L-1.4 -1.7L0 -0.9L1.4 -1.7L2.2 -0.3Z" transform="translate(141 460)"></path><path d="M0.3 0.2L0.3 0.7L-0.3 0.7L-0.3 0.2L-0.7 -0.1L-0.5 -0.6L0 -0.3L0.5 -0.6L0.7 -0.1Z" transform="translate(761 449)"></path><path d="M1.9 1.1L1.9 4.9L-1.9 4.9L-1.9 1.1L-5.2 -0.8L-3.3 -4.1L0 -2.2L3.3 -4.1L5.2 -0.8Z" transform="translate(897 418)"></path><path d="M1.6 0.9L1.6 4.2L-1.6 4.2L-1.6 0.9L-4.4 -0.7L-2.8 -3.5L0 -1.9L2.8 -3.5L4.4 -0.7Z" transform="translate(732 94)"></path><path d="M3 1.7L3 7.7L-3 7.7L-3 1.7L-8.1 -1.3L-5.1 -6.4L0 -3.4L5.1 -6.4L8.1 -1.3Z" transform="translate(482 88)"></path><path d="M3.2 1.9L3.2 8.3L-3.2 8.3L-3.2 1.9L-8.8 -1.4L-5.6 -7L0 -3.7L5.6 -7L8.8 -1.4Z" transform="translate(418 435)"></path><path d="M2.7 1.6L2.7 7L-2.7 7L-2.7 1.6L-7.4 -1.1L-4.7 -5.8L0 -3.1L4.7 -5.8L7.4 -1.1Z" transform="translate(582 431)"></path><path d="M2.7 1.6L2.7 7L-2.7 7L-2.7 1.6L-7.4 -1.1L-4.7 -5.8L0 -3.1L4.7 -5.8L7.4 -1.1Z" transform="translate(396 496)"></path><path d="M0.8 0.5L0.8 2.1L-0.8 2.1L-0.8 0.5L-2.2 -0.3L-1.4 -1.7L0 -0.9L1.4 -1.7L2.2 -0.3Z" transform="translate(185 221)"></path><path d="M0.8 0.5L0.8 2.1L-0.8 2.1L-0.8 0.5L-2.2 -0.3L-1.4 -1.7L0 -0.9L1.4 -1.7L2.2 -0.3Z" transform="translate(355 120)"></path><path d="M0.5 0.3L0.5 1.4L-0.5 1.4L-0.5 0.3L-1.5 -0.2L-0.9 -1.2L0 -0.6L0.9 -1.2L1.5 -0.2Z" transform="translate(231 417)"></path><path d="M1.1 0.6L1.1 2.8L-1.1 2.8L-1.1 0.6L-2.9 -0.5L-1.9 -2.3L0 -1.2L1.9 -2.3L2.9 -0.5Z" transform="translate(310 315)"></path><path d="M2.4 1.4L2.4 6.3L-2.4 6.3L-2.4 1.4L-6.6 -1L-4.2 -5.2L0 -2.8L4.2 -5.2L6.6 -1Z" transform="translate(3 127)"></path><path d="M3 1.7L3 7.7L-3 7.7L-3 1.7L-8.1 -1.3L-5.1 -6.4L0 -3.4L5.1 -6.4L8.1 -1.3Z" transform="translate(299 225)"></path><path d="M0.8 0.5L0.8 2.1L-0.8 2.1L-0.8 0.5L-2.2 -0.3L-1.4 -1.7L0 -0.9L1.4 -1.7L2.2 -0.3Z" transform="translate(354 456)"></path><path d="M3.2 1.9L3.2 8.3L-3.2 8.3L-3.2 1.9L-8.8 -1.4L-5.6 -7L0 -3.7L5.6 -7L8.8 -1.4Z" transform="translate(209 485)"></path><path d="M0.3 0.2L0.3 0.7L-0.3 0.7L-0.3 0.2L-0.7 -0.1L-0.5 -0.6L0 -0.3L0.5 -0.6L0.7 -0.1Z" transform="translate(2 361)"></path><path d="M1.9 1.1L1.9 4.9L-1.9 4.9L-1.9 1.1L-5.2 -0.8L-3.3 -4.1L0 -2.2L3.3 -4.1L5.2 -0.8Z" transform="translate(312 505)"></path><path d="M0.8 0.5L0.8 2.1L-0.8 2.1L-0.8 0.5L-2.2 -0.3L-1.4 -1.7L0 -0.9L1.4 -1.7L2.2 -0.3Z" transform="translate(739 359)"></path><path d="M1.3 0.8L1.3 3.5L-1.3 3.5L-1.3 0.8L-3.7 -0.6L-2.3 -2.9L0 -1.6L2.3 -2.9L3.7 -0.6Z" transform="translate(632 91)"></path><path d="M1.3 0.8L1.3 3.5L-1.3 3.5L-1.3 0.8L-3.7 -0.6L-2.3 -2.9L0 -1.6L2.3 -2.9L3.7 -0.6Z" transform="translate(467 256)"></path><path d="M1.6 0.9L1.6 4.2L-1.6 4.2L-1.6 0.9L-4.4 -0.7L-2.8 -3.5L0 -1.9L2.8 -3.5L4.4 -0.7Z" transform="translate(748 288)"></path><path d="M2.2 1.2L2.2 5.6L-2.2 5.6L-2.2 1.2L-5.9 -0.9L-3.7 -4.7L0 -2.5L3.7 -4.7L5.9 -0.9Z" transform="translate(465 160)"></path><path d="M3.2 1.9L3.2 8.3L-3.2 8.3L-3.2 1.9L-8.8 -1.4L-5.6 -7L0 -3.7L5.6 -7L8.8 -1.4Z" transform="translate(137 432)"></path><path d="M1.3 0.8L1.3 3.5L-1.3 3.5L-1.3 0.8L-3.7 -0.6L-2.3 -2.9L0 -1.6L2.3 -2.9L3.7 -0.6Z" transform="translate(543 117)"></path><path d="M3 1.7L3 7.7L-3 7.7L-3 1.7L-8.1 -1.3L-5.1 -6.4L0 -3.4L5.1 -6.4L8.1 -1.3Z" transform="translate(520 479)"></path><path d="M0.3 0.2L0.3 0.7L-0.3 0.7L-0.3 0.2L-0.7 -0.1L-0.5 -0.6L0 -0.3L0.5 -0.6L0.7 -0.1Z" transform="translate(687 75)"></path><path d="M2.2 1.2L2.2 5.6L-2.2 5.6L-2.2 1.2L-5.9 -0.9L-3.7 -4.7L0 -2.5L3.7 -4.7L5.9 -0.9Z" transform="translate(536 85)"></path><path d="M0.5 0.3L0.5 1.4L-0.5 1.4L-0.5 0.3L-1.5 -0.2L-0.9 -1.2L0 -0.6L0.9 -1.2L1.5 -0.2Z" transform="translate(463 114)"></path><path d="M3 1.7L3 7.7L-3 7.7L-3 1.7L-8.1 -1.3L-5.1 -6.4L0 -3.4L5.1 -6.4L8.1 -1.3Z" transform="translate(860 222)"></path><path d="M0.8 0.5L0.8 2.1L-0.8 2.1L-0.8 0.5L-2.2 -0.3L-1.4 -1.7L0 -0.9L1.4 -1.7L2.2 -0.3Z" transform="translate(26 159)"></path><path d="M3.2 1.9L3.2 8.3L-3.2 8.3L-3.2 1.9L-8.8 -1.4L-5.6 -7L0 -3.7L5.6 -7L8.8 -1.4Z" transform="translate(461 512)"></path><path d="M2.2 1.2L2.2 5.6L-2.2 5.6L-2.2 1.2L-5.9 -0.9L-3.7 -4.7L0 -2.5L3.7 -4.7L5.9 -0.9Z" transform="translate(217 585)"></path><path d="M0.5 0.3L0.5 1.4L-0.5 1.4L-0.5 0.3L-1.5 -0.2L-0.9 -1.2L0 -0.6L0.9 -1.2L1.5 -0.2Z" transform="translate(825 74)"></path><path d="M1.1 0.6L1.1 2.8L-1.1 2.8L-1.1 0.6L-2.9 -0.5L-1.9 -2.3L0 -1.2L1.9 -2.3L2.9 -0.5Z" transform="translate(71 276)"></path><path d="M1.3 0.8L1.3 3.5L-1.3 3.5L-1.3 0.8L-3.7 -0.6L-2.3 -2.9L0 -1.6L2.3 -2.9L3.7 -0.6Z" transform="translate(542 544)"></path><path d="M0.8 0.5L0.8 2.1L-0.8 2.1L-0.8 0.5L-2.2 -0.3L-1.4 -1.7L0 -0.9L1.4 -1.7L2.2 -0.3Z" transform="translate(612 282)"></path><path d="M1.9 1.1L1.9 4.9L-1.9 4.9L-1.9 1.1L-5.2 -0.8L-3.3 -4.1L0 -2.2L3.3 -4.1L5.2 -0.8Z" transform="translate(397 569)"></path><path d="M0.3 0.2L0.3 0.7L-0.3 0.7L-0.3 0.2L-0.7 -0.1L-0.5 -0.6L0 -0.3L0.5 -0.6L0.7 -0.1Z" transform="translate(335 589)"></path><path d="M1.9 1.1L1.9 4.9L-1.9 4.9L-1.9 1.1L-5.2 -0.8L-3.3 -4.1L0 -2.2L3.3 -4.1L5.2 -0.8Z" transform="translate(60 49)"></path><path d="M1.3 0.8L1.3 3.5L-1.3 3.5L-1.3 0.8L-3.7 -0.6L-2.3 -2.9L0 -1.6L2.3 -2.9L3.7 -0.6Z" transform="translate(624 353)"></path><path d="M1.6 0.9L1.6 4.2L-1.6 4.2L-1.6 0.9L-4.4 -0.7L-2.8 -3.5L0 -1.9L2.8 -3.5L4.4 -0.7Z" transform="translate(568 365)"></path><path d="M1.3 0.8L1.3 3.5L-1.3 3.5L-1.3 0.8L-3.7 -0.6L-2.3 -2.9L0 -1.6L2.3 -2.9L3.7 -0.6Z" transform="translate(562 136)"></path><path d="M2.4 1.4L2.4 6.3L-2.4 6.3L-2.4 1.4L-6.6 -1L-4.2 -5.2L0 -2.8L4.2 -5.2L6.6 -1Z" transform="translate(817 158)"></path><path d="M0.3 0.2L0.3 0.7L-0.3 0.7L-0.3 0.2L-0.7 -0.1L-0.5 -0.6L0 -0.3L0.5 -0.6L0.7 -0.1Z" transform="translate(404 160)"></path><path d="M0.8 0.5L0.8 2.1L-0.8 2.1L-0.8 0.5L-2.2 -0.3L-1.4 -1.7L0 -0.9L1.4 -1.7L2.2 -0.3Z" transform="translate(343 65)"></path><path d="M0.5 0.3L0.5 1.4L-0.5 1.4L-0.5 0.3L-1.5 -0.2L-0.9 -1.2L0 -0.6L0.9 -1.2L1.5 -0.2Z" transform="translate(4 32)"></path><path d="M1.1 0.6L1.1 2.8L-1.1 2.8L-1.1 0.6L-2.9 -0.5L-1.9 -2.3L0 -1.2L1.9 -2.3L2.9 -0.5Z" transform="translate(432 72)"></path><path d="M2.7 1.6L2.7 7L-2.7 7L-2.7 1.6L-7.4 -1.1L-4.7 -5.8L0 -3.1L4.7 -5.8L7.4 -1.1Z" transform="translate(687 299)"></path><path d="M2.7 1.6L2.7 7L-2.7 7L-2.7 1.6L-7.4 -1.1L-4.7 -5.8L0 -3.1L4.7 -5.8L7.4 -1.1Z" transform="translate(189 122)"></path><path d="M1.3 0.8L1.3 3.5L-1.3 3.5L-1.3 0.8L-3.7 -0.6L-2.3 -2.9L0 -1.6L2.3 -2.9L3.7 -0.6Z" transform="translate(632 240)"></path><path d="M3 1.7L3 7.7L-3 7.7L-3 1.7L-8.1 -1.3L-5.1 -6.4L0 -3.4L5.1 -6.4L8.1 -1.3Z" transform="translate(57 397)"></path><path d="M2.2 1.2L2.2 5.6L-2.2 5.6L-2.2 1.2L-5.9 -0.9L-3.7 -4.7L0 -2.5L3.7 -4.7L5.9 -0.9Z" transform="translate(618 52)"></path><path d="M0 0L0 0L0 0L0 0L0 0L0 0L0 0L0 0L0 0Z" transform="translate(150 10)"></path><path d="M1.9 1.1L1.9 4.9L-1.9 4.9L-1.9 1.1L-5.2 -0.8L-3.3 -4.1L0 -2.2L3.3 -4.1L5.2 -0.8Z" transform="translate(281 467)"></path><path d="M0.5 0.3L0.5 1.4L-0.5 1.4L-0.5 0.3L-1.5 -0.2L-0.9 -1.2L0 -0.6L0.9 -1.2L1.5 -0.2Z" transform="translate(444 441)"></path><path d="M0.5 0.3L0.5 1.4L-0.5 1.4L-0.5 0.3L-1.5 -0.2L-0.9 -1.2L0 -0.6L0.9 -1.2L1.5 -0.2Z" transform="translate(386 385)"></path><path d="M1.1 0.6L1.1 2.8L-1.1 2.8L-1.1 0.6L-2.9 -0.5L-1.9 -2.3L0 -1.2L1.9 -2.3L2.9 -0.5Z" transform="translate(640 305)"></path><path d="M0.8 0.5L0.8 2.1L-0.8 2.1L-0.8 0.5L-2.2 -0.3L-1.4 -1.7L0 -0.9L1.4 -1.7L2.2 -0.3Z" transform="translate(233 276)"></path><path d="M0 0L0 0L0 0L0 0L0 0L0 0L0 0L0 0L0 0Z" transform="translate(695 383)"></path><path d="M1.1 0.6L1.1 2.8L-1.1 2.8L-1.1 0.6L-2.9 -0.5L-1.9 -2.3L0 -1.2L1.9 -2.3L2.9 -0.5Z" transform="translate(626 210)"></path><path d="M2.7 1.6L2.7 7L-2.7 7L-2.7 1.6L-7.4 -1.1L-4.7 -5.8L0 -3.1L4.7 -5.8L7.4 -1.1Z" transform="translate(282 49)"></path><path d="M2.7 1.6L2.7 7L-2.7 7L-2.7 1.6L-7.4 -1.1L-4.7 -5.8L0 -3.1L4.7 -5.8L7.4 -1.1Z" transform="translate(497 274)"></path><path d="M0.3 0.2L0.3 0.7L-0.3 0.7L-0.3 0.2L-0.7 -0.1L-0.5 -0.6L0 -0.3L0.5 -0.6L0.7 -0.1Z" transform="translate(617 522)"></path><path d="M2.4 1.4L2.4 6.3L-2.4 6.3L-2.4 1.4L-6.6 -1L-4.2 -5.2L0 -2.8L4.2 -5.2L6.6 -1Z" transform="translate(537 598)"></path><path d="M0.8 0.5L0.8 2.1L-0.8 2.1L-0.8 0.5L-2.2 -0.3L-1.4 -1.7L0 -0.9L1.4 -1.7L2.2 -0.3Z" transform="translate(583 61)"></path><path d="M1.3 0.8L1.3 3.5L-1.3 3.5L-1.3 0.8L-3.7 -0.6L-2.3 -2.9L0 -1.6L2.3 -2.9L3.7 -0.6Z" transform="translate(694 480)"></path><path d="M0.5 0.3L0.5 1.4L-0.5 1.4L-0.5 0.3L-1.5 -0.2L-0.9 -1.2L0 -0.6L0.9 -1.2L1.5 -0.2Z" transform="translate(137 595)"></path><path d="M0.5 0.3L0.5 1.4L-0.5 1.4L-0.5 0.3L-1.5 -0.2L-0.9 -1.2L0 -0.6L0.9 -1.2L1.5 -0.2Z" transform="translate(678 3)"></path><path d="M1.6 0.9L1.6 4.2L-1.6 4.2L-1.6 0.9L-4.4 -0.7L-2.8 -3.5L0 -1.9L2.8 -3.5L4.4 -0.7Z" transform="translate(701 152)"></path><path d="M2.4 1.4L2.4 6.3L-2.4 6.3L-2.4 1.4L-6.6 -1L-4.2 -5.2L0 -2.8L4.2 -5.2L6.6 -1Z" transform="translate(857 402)"></path><path d="M1.9 1.1L1.9 4.9L-1.9 4.9L-1.9 1.1L-5.2 -0.8L-3.3 -4.1L0 -2.2L3.3 -4.1L5.2 -0.8Z" transform="translate(497 50)"></path><path d="M2.7 1.6L2.7 7L-2.7 7L-2.7 1.6L-7.4 -1.1L-4.7 -5.8L0 -3.1L4.7 -5.8L7.4 -1.1Z" transform="translate(134 144)"></path><path d="M3 1.7L3 7.7L-3 7.7L-3 1.7L-8.1 -1.3L-5.1 -6.4L0 -3.4L5.1 -6.4L8.1 -1.3Z" transform="translate(6 410)"></path><path d="M0.3 0.2L0.3 0.7L-0.3 0.7L-0.3 0.2L-0.7 -0.1L-0.5 -0.6L0 -0.3L0.5 -0.6L0.7 -0.1Z" transform="translate(218 310)"></path><path d="M0.5 0.3L0.5 1.4L-0.5 1.4L-0.5 0.3L-1.5 -0.2L-0.9 -1.2L0 -0.6L0.9 -1.2L1.5 -0.2Z" transform="translate(352 285)"></path><path d="M2.4 1.4L2.4 6.3L-2.4 6.3L-2.4 1.4L-6.6 -1L-4.2 -5.2L0 -2.8L4.2 -5.2L6.6 -1Z" transform="translate(898 561)"></path><path d="M0 0L0 0L0 0L0 0L0 0L0 0L0 0L0 0L0 0Z" transform="translate(249 592)"></path><path d="M1.1 0.6L1.1 2.8L-1.1 2.8L-1.1 0.6L-2.9 -0.5L-1.9 -2.3L0 -1.2L1.9 -2.3L2.9 -0.5Z" transform="translate(763 218)"></path><path d="M0.8 0.5L0.8 2.1L-0.8 2.1L-0.8 0.5L-2.2 -0.3L-1.4 -1.7L0 -0.9L1.4 -1.7L2.2 -0.3Z" transform="translate(240 350)"></path><path d="M2.7 1.6L2.7 7L-2.7 7L-2.7 1.6L-7.4 -1.1L-4.7 -5.8L0 -3.1L4.7 -5.8L7.4 -1.1Z" transform="translate(502 521)"></path><path d="M3.2 1.9L3.2 8.3L-3.2 8.3L-3.2 1.9L-8.8 -1.4L-5.6 -7L0 -3.7L5.6 -7L8.8 -1.4Z" transform="translate(79 336)"></path><path d="M0.3 0.2L0.3 0.7L-0.3 0.7L-0.3 0.2L-0.7 -0.1L-0.5 -0.6L0 -0.3L0.5 -0.6L0.7 -0.1Z" transform="translate(163 599)"></path><path d="M2.2 1.2L2.2 5.6L-2.2 5.6L-2.2 1.2L-5.9 -0.9L-3.7 -4.7L0 -2.5L3.7 -4.7L5.9 -0.9Z" transform="translate(43 371)"></path><path d="M3 1.7L3 7.7L-3 7.7L-3 1.7L-8.1 -1.3L-5.1 -6.4L0 -3.4L5.1 -6.4L8.1 -1.3Z" transform="translate(439 562)"></path><path d="M1.1 0.6L1.1 2.8L-1.1 2.8L-1.1 0.6L-2.9 -0.5L-1.9 -2.3L0 -1.2L1.9 -2.3L2.9 -0.5Z" transform="translate(641 382)"></path><path d="M1.6 0.9L1.6 4.2L-1.6 4.2L-1.6 0.9L-4.4 -0.7L-2.8 -3.5L0 -1.9L2.8 -3.5L4.4 -0.7Z" transform="translate(826 226)"></path><path d="M2.7 1.6L2.7 7L-2.7 7L-2.7 1.6L-7.4 -1.1L-4.7 -5.8L0 -3.1L4.7 -5.8L7.4 -1.1Z" transform="translate(243 10)"></path><path d="M0.3 0.2L0.3 0.7L-0.3 0.7L-0.3 0.2L-0.7 -0.1L-0.5 -0.6L0 -0.3L0.5 -0.6L0.7 -0.1Z" transform="translate(160 377)"></path><path d="M3.2 1.9L3.2 8.3L-3.2 8.3L-3.2 1.9L-8.8 -1.4L-5.6 -7L0 -3.7L5.6 -7L8.8 -1.4Z" transform="translate(411 27)"></path><path d="M1.6 0.9L1.6 4.2L-1.6 4.2L-1.6 0.9L-4.4 -0.7L-2.8 -3.5L0 -1.9L2.8 -3.5L4.4 -0.7Z" transform="translate(170 474)"></path><path d="M0.8 0.5L0.8 2.1L-0.8 2.1L-0.8 0.5L-2.2 -0.3L-1.4 -1.7L0 -0.9L1.4 -1.7L2.2 -0.3Z" transform="translate(660 438)"></path><path d="M0.3 0.2L0.3 0.7L-0.3 0.7L-0.3 0.2L-0.7 -0.1L-0.5 -0.6L0 -0.3L0.5 -0.6L0.7 -0.1Z" transform="translate(544 383)"></path><path d="M0.8 0.5L0.8 2.1L-0.8 2.1L-0.8 0.5L-2.2 -0.3L-1.4 -1.7L0 -0.9L1.4 -1.7L2.2 -0.3Z" transform="translate(516 296)"></path><path d="M0.3 0.2L0.3 0.7L-0.3 0.7L-0.3 0.2L-0.7 -0.1L-0.5 -0.6L0 -0.3L0.5 -0.6L0.7 -0.1Z" transform="translate(72 525)"></path><path d="M1.6 0.9L1.6 4.2L-1.6 4.2L-1.6 0.9L-4.4 -0.7L-2.8 -3.5L0 -1.9L2.8 -3.5L4.4 -0.7Z" transform="translate(180 92)"></path><path d="M1.3 0.8L1.3 3.5L-1.3 3.5L-1.3 0.8L-3.7 -0.6L-2.3 -2.9L0 -1.6L2.3 -2.9L3.7 -0.6Z" transform="translate(780 468)"></path><path d="M2.7 1.6L2.7 7L-2.7 7L-2.7 1.6L-7.4 -1.1L-4.7 -5.8L0 -3.1L4.7 -5.8L7.4 -1.1Z" transform="translate(338 492)"></path><path d="M3.2 1.9L3.2 8.3L-3.2 8.3L-3.2 1.9L-8.8 -1.4L-5.6 -7L0 -3.7L5.6 -7L8.8 -1.4Z" transform="translate(330 561)"></path><path d="M0 0L0 0L0 0L0 0L0 0L0 0L0 0L0 0L0 0Z" transform="translate(896 452)"></path><path d="M3 1.7L3 7.7L-3 7.7L-3 1.7L-8.1 -1.3L-5.1 -6.4L0 -3.4L5.1 -6.4L8.1 -1.3Z" transform="translate(526 254)"></path><path d="M3.2 1.9L3.2 8.3L-3.2 8.3L-3.2 1.9L-8.8 -1.4L-5.6 -7L0 -3.7L5.6 -7L8.8 -1.4Z" transform="translate(109 3)"></path><path d="M2.7 1.6L2.7 7L-2.7 7L-2.7 1.6L-7.4 -1.1L-4.7 -5.8L0 -3.1L4.7 -5.8L7.4 -1.1Z" transform="translate(814 5)"></path><path d="M1.3 0.8L1.3 3.5L-1.3 3.5L-1.3 0.8L-3.7 -0.6L-2.3 -2.9L0 -1.6L2.3 -2.9L3.7 -0.6Z" transform="translate(179 314)"></path><path d="M2.2 1.2L2.2 5.6L-2.2 5.6L-2.2 1.2L-5.9 -0.9L-3.7 -4.7L0 -2.5L3.7 -4.7L5.9 -0.9Z" transform="translate(592 1)"></path><path d="M1.9 1.1L1.9 4.9L-1.9 4.9L-1.9 1.1L-5.2 -0.8L-3.3 -4.1L0 -2.2L3.3 -4.1L5.2 -0.8Z" transform="translate(870 515)"></path><path d="M1.9 1.1L1.9 4.9L-1.9 4.9L-1.9 1.1L-5.2 -0.8L-3.3 -4.1L0 -2.2L3.3 -4.1L5.2 -0.8Z" transform="translate(780 246)"></path><path d="M1.3 0.8L1.3 3.5L-1.3 3.5L-1.3 0.8L-3.7 -0.6L-2.3 -2.9L0 -1.6L2.3 -2.9L3.7 -0.6Z" transform="translate(579 165)"></path><path d="M0.5 0.3L0.5 1.4L-0.5 1.4L-0.5 0.3L-1.5 -0.2L-0.9 -1.2L0 -0.6L0.9 -1.2L1.5 -0.2Z" transform="translate(604 496)"></path><path d="M0.3 0.2L0.3 0.7L-0.3 0.7L-0.3 0.2L-0.7 -0.1L-0.5 -0.6L0 -0.3L0.5 -0.6L0.7 -0.1Z" transform="translate(17 1)"></path><path d="M1.1 0.6L1.1 2.8L-1.1 2.8L-1.1 0.6L-2.9 -0.5L-1.9 -2.3L0 -1.2L1.9 -2.3L2.9 -0.5Z" transform="translate(6 566)"></path><path d="M2.2 1.2L2.2 5.6L-2.2 5.6L-2.2 1.2L-5.9 -0.9L-3.7 -4.7L0 -2.5L3.7 -4.7L5.9 -0.9Z" transform="translate(227 64)"></path><path d="M1.9 1.1L1.9 4.9L-1.9 4.9L-1.9 1.1L-5.2 -0.8L-3.3 -4.1L0 -2.2L3.3 -4.1L5.2 -0.8Z" transform="translate(335 521)"></path><path d="M0.8 0.5L0.8 2.1L-0.8 2.1L-0.8 0.5L-2.2 -0.3L-1.4 -1.7L0 -0.9L1.4 -1.7L2.2 -0.3Z" transform="translate(520 192)"></path><path d="M1.9 1.1L1.9 4.9L-1.9 4.9L-1.9 1.1L-5.2 -0.8L-3.3 -4.1L0 -2.2L3.3 -4.1L5.2 -0.8Z" transform="translate(4 512)"></path><path d="M1.3 0.8L1.3 3.5L-1.3 3.5L-1.3 0.8L-3.7 -0.6L-2.3 -2.9L0 -1.6L2.3 -2.9L3.7 -0.6Z" transform="translate(415 189)"></path><path d="M2.7 1.6L2.7 7L-2.7 7L-2.7 1.6L-7.4 -1.1L-4.7 -5.8L0 -3.1L4.7 -5.8L7.4 -1.1Z" transform="translate(731 331)"></path><path d="M3.2 1.9L3.2 8.3L-3.2 8.3L-3.2 1.9L-8.8 -1.4L-5.6 -7L0 -3.7L5.6 -7L8.8 -1.4Z" transform="translate(98 186)"></path><path d="M1.3 0.8L1.3 3.5L-1.3 3.5L-1.3 0.8L-3.7 -0.6L-2.3 -2.9L0 -1.6L2.3 -2.9L3.7 -0.6Z" transform="translate(700 198)"></path><path d="M1.1 0.6L1.1 2.8L-1.1 2.8L-1.1 0.6L-2.9 -0.5L-1.9 -2.3L0 -1.2L1.9 -2.3L2.9 -0.5Z" transform="translate(899 508)"></path><path d="M2.7 1.6L2.7 7L-2.7 7L-2.7 1.6L-7.4 -1.1L-4.7 -5.8L0 -3.1L4.7 -5.8L7.4 -1.1Z" transform="translate(355 385)"></path><path d="M2.4 1.4L2.4 6.3L-2.4 6.3L-2.4 1.4L-6.6 -1L-4.2 -5.2L0 -2.8L4.2 -5.2L6.6 -1Z" transform="translate(216 90)"></path><path d="M1.1 0.6L1.1 2.8L-1.1 2.8L-1.1 0.6L-2.9 -0.5L-1.9 -2.3L0 -1.2L1.9 -2.3L2.9 -0.5Z" transform="translate(892 324)"></path><path d="M3.2 1.9L3.2 8.3L-3.2 8.3L-3.2 1.9L-8.8 -1.4L-5.6 -7L0 -3.7L5.6 -7L8.8 -1.4Z" transform="translate(726 264)"></path><path d="M1.9 1.1L1.9 4.9L-1.9 4.9L-1.9 1.1L-5.2 -0.8L-3.3 -4.1L0 -2.2L3.3 -4.1L5.2 -0.8Z" transform="translate(66 2)"></path><path d="M3.2 1.9L3.2 8.3L-3.2 8.3L-3.2 1.9L-8.8 -1.4L-5.6 -7L0 -3.7L5.6 -7L8.8 -1.4Z" transform="translate(469 392)"></path><path d="M0.8 0.5L0.8 2.1L-0.8 2.1L-0.8 0.5L-2.2 -0.3L-1.4 -1.7L0 -0.9L1.4 -1.7L2.2 -0.3Z" transform="translate(2 74)"></path><path d="M1.6 0.9L1.6 4.2L-1.6 4.2L-1.6 0.9L-4.4 -0.7L-2.8 -3.5L0 -1.9L2.8 -3.5L4.4 -0.7Z" transform="translate(372 221)"></path><path d="M1.1 0.6L1.1 2.8L-1.1 2.8L-1.1 0.6L-2.9 -0.5L-1.9 -2.3L0 -1.2L1.9 -2.3L2.9 -0.5Z" transform="translate(460 3)"></path><path d="M1.6 0.9L1.6 4.2L-1.6 4.2L-1.6 0.9L-4.4 -0.7L-2.8 -3.5L0 -1.9L2.8 -3.5L4.4 -0.7Z" transform="translate(76 561)"></path><path d="M0.8 0.5L0.8 2.1L-0.8 2.1L-0.8 0.5L-2.2 -0.3L-1.4 -1.7L0 -0.9L1.4 -1.7L2.2 -0.3Z" transform="translate(112 459)"></path><path d="M2.2 1.2L2.2 5.6L-2.2 5.6L-2.2 1.2L-5.9 -0.9L-3.7 -4.7L0 -2.5L3.7 -4.7L5.9 -0.9Z" transform="translate(331 335)"></path><path d="M3 1.7L3 7.7L-3 7.7L-3 1.7L-8.1 -1.3L-5.1 -6.4L0 -3.4L5.1 -6.4L8.1 -1.3Z" transform="translate(852 292)"></path><path d="M1.1 0.6L1.1 2.8L-1.1 2.8L-1.1 0.6L-2.9 -0.5L-1.9 -2.3L0 -1.2L1.9 -2.3L2.9 -0.5Z" transform="translate(437 272)"></path><path d="M2.2 1.2L2.2 5.6L-2.2 5.6L-2.2 1.2L-5.9 -0.9L-3.7 -4.7L0 -2.5L3.7 -4.7L5.9 -0.9Z" transform="translate(447 137)"></path><path d="M0.8 0.5L0.8 2.1L-0.8 2.1L-0.8 0.5L-2.2 -0.3L-1.4 -1.7L0 -0.9L1.4 -1.7L2.2 -0.3Z" transform="translate(843 512)"></path><path d="M1.3 0.8L1.3 3.5L-1.3 3.5L-1.3 0.8L-3.7 -0.6L-2.3 -2.9L0 -1.6L2.3 -2.9L3.7 -0.6Z" transform="translate(322 239)"></path><path d="M1.6 0.9L1.6 4.2L-1.6 4.2L-1.6 0.9L-4.4 -0.7L-2.8 -3.5L0 -1.9L2.8 -3.5L4.4 -0.7Z" transform="translate(4 207)"></path><path d="M2.7 1.6L2.7 7L-2.7 7L-2.7 1.6L-7.4 -1.1L-4.7 -5.8L0 -3.1L4.7 -5.8L7.4 -1.1Z" transform="translate(533 453)"></path><path d="M1.6 0.9L1.6 4.2L-1.6 4.2L-1.6 0.9L-4.4 -0.7L-2.8 -3.5L0 -1.9L2.8 -3.5L4.4 -0.7Z" transform="translate(218 145)"></path><path d="M2.4 1.4L2.4 6.3L-2.4 6.3L-2.4 1.4L-6.6 -1L-4.2 -5.2L0 -2.8L4.2 -5.2L6.6 -1Z" transform="translate(897 126)"></path><path d="M0.8 0.5L0.8 2.1L-0.8 2.1L-0.8 0.5L-2.2 -0.3L-1.4 -1.7L0 -0.9L1.4 -1.7L2.2 -0.3Z" transform="translate(716 126)"></path><path d="M2.4 1.4L2.4 6.3L-2.4 6.3L-2.4 1.4L-6.6 -1L-4.2 -5.2L0 -2.8L4.2 -5.2L6.6 -1Z" transform="translate(582 595)"></path><path d="M1.9 1.1L1.9 4.9L-1.9 4.9L-1.9 1.1L-5.2 -0.8L-3.3 -4.1L0 -2.2L3.3 -4.1L5.2 -0.8Z" transform="translate(363 483)"></path><path d="M0 0L0 0L0 0L0 0L0 0L0 0L0 0L0 0L0 0Z" transform="translate(154 542)"></path><path d="M1.9 1.1L1.9 4.9L-1.9 4.9L-1.9 1.1L-5.2 -0.8L-3.3 -4.1L0 -2.2L3.3 -4.1L5.2 -0.8Z" transform="translate(474 441)"></path><path d="M2.7 1.6L2.7 7L-2.7 7L-2.7 1.6L-7.4 -1.1L-4.7 -5.8L0 -3.1L4.7 -5.8L7.4 -1.1Z" transform="translate(57 121)"></path><path d="M1.6 0.9L1.6 4.2L-1.6 4.2L-1.6 0.9L-4.4 -0.7L-2.8 -3.5L0 -1.9L2.8 -3.5L4.4 -0.7Z" transform="translate(290 428)"></path><path d="M1.3 0.8L1.3 3.5L-1.3 3.5L-1.3 0.8L-3.7 -0.6L-2.3 -2.9L0 -1.6L2.3 -2.9L3.7 -0.6Z" transform="translate(347 147)"></path><path d="M3.2 1.9L3.2 8.3L-3.2 8.3L-3.2 1.9L-8.8 -1.4L-5.6 -7L0 -3.7L5.6 -7L8.8 -1.4Z" transform="translate(181 147)"></path><path d="M0.3 0.2L0.3 0.7L-0.3 0.7L-0.3 0.2L-0.7 -0.1L-0.5 -0.6L0 -0.3L0.5 -0.6L0.7 -0.1Z" transform="translate(1 174)"></path><path d="M1.1 0.6L1.1 2.8L-1.1 2.8L-1.1 0.6L-2.9 -0.5L-1.9 -2.3L0 -1.2L1.9 -2.3L2.9 -0.5Z" transform="translate(899 46)"></path><path d="M3.2 1.9L3.2 8.3L-3.2 8.3L-3.2 1.9L-8.8 -1.4L-5.6 -7L0 -3.7L5.6 -7L8.8 -1.4Z" transform="translate(664 597)"></path><path d="M0.5 0.3L0.5 1.4L-0.5 1.4L-0.5 0.3L-1.5 -0.2L-0.9 -1.2L0 -0.6L0.9 -1.2L1.5 -0.2Z" transform="translate(141 491)"></path><path d="M0.5 0.3L0.5 1.4L-0.5 1.4L-0.5 0.3L-1.5 -0.2L-0.9 -1.2L0 -0.6L0.9 -1.2L1.5 -0.2Z" transform="translate(791 53)"></path><path d="M3 1.7L3 7.7L-3 7.7L-3 1.7L-8.1 -1.3L-5.1 -6.4L0 -3.4L5.1 -6.4L8.1 -1.3Z" transform="translate(588 526)"></path><path d="M0.5 0.3L0.5 1.4L-0.5 1.4L-0.5 0.3L-1.5 -0.2L-0.9 -1.2L0 -0.6L0.9 -1.2L1.5 -0.2Z" transform="translate(192 39)"></path><path d="M0.5 0.3L0.5 1.4L-0.5 1.4L-0.5 0.3L-1.5 -0.2L-0.9 -1.2L0 -0.6L0.9 -1.2L1.5 -0.2Z" transform="translate(767 307)"></path><path d="M1.1 0.6L1.1 2.8L-1.1 2.8L-1.1 0.6L-2.9 -0.5L-1.9 -2.3L0 -1.2L1.9 -2.3L2.9 -0.5Z" transform="translate(44 284)"></path><path d="M3.2 1.9L3.2 8.3L-3.2 8.3L-3.2 1.9L-8.8 -1.4L-5.6 -7L0 -3.7L5.6 -7L8.8 -1.4Z" transform="translate(211 231)"></path><path d="M1.3 0.8L1.3 3.5L-1.3 3.5L-1.3 0.8L-3.7 -0.6L-2.3 -2.9L0 -1.6L2.3 -2.9L3.7 -0.6Z" transform="translate(855 119)"></path><path d="M0.8 0.5L0.8 2.1L-0.8 2.1L-0.8 0.5L-2.2 -0.3L-1.4 -1.7L0 -0.9L1.4 -1.7L2.2 -0.3Z" transform="translate(559 454)"></path><path d="M3.2 1.9L3.2 8.3L-3.2 8.3L-3.2 1.9L-8.8 -1.4L-5.6 -7L0 -3.7L5.6 -7L8.8 -1.4Z" transform="translate(81 104)"></path><path d="M0.5 0.3L0.5 1.4L-0.5 1.4L-0.5 0.3L-1.5 -0.2L-0.9 -1.2L0 -0.6L0.9 -1.2L1.5 -0.2Z" transform="translate(76 415)"></path><path d="M3.2 1.9L3.2 8.3L-3.2 8.3L-3.2 1.9L-8.8 -1.4L-5.6 -7L0 -3.7L5.6 -7L8.8 -1.4Z" transform="translate(123 395)"></path></g></svg>